<?xml version="1.0" encoding="UTF-8" standalone="no"?>
<!DOCTYPE svg  PUBLIC '-//W3C//DTD SVG 1.1//EN'  'http://www.w3.org/Graphics/SVG/1.1/DTD/svg11.dtd'>
<svg xmlns="http://www.w3.org/2000/svg">
<defs>
<font id="BurberryCapitals-Regular" horiz-adv-x="1150">
<font-face underline-position="-113" font-weight="400" descent="-200" panose-1="2 0 5 7 9 0 0 2 0 4" units-per-em="1000" unicode-range="U+0008-25CA" bbox="-120 -263 1934 938" font-variant="small-caps" x-height="660" underline-thickness="20" font-family="BurberryCapitals" ascent="800" cap-height="660"/>
<missing-glyph horiz-adv-x="1000"/>
<glyph glyph-name=".notdef" horiz-adv-x="1000"/>
<glyph glyph-name=".null" horiz-adv-x="0"/>
<glyph glyph-name=".null" horiz-adv-x="0"/>
<glyph glyph-name=".null" horiz-adv-x="0"/>
<glyph glyph-name="nonmarkingreturn" horiz-adv-x="333"/>
<glyph glyph-name="space" horiz-adv-x="500" unicode=" "/>
<glyph glyph-name="exclam" horiz-adv-x="522" unicode="!" d="M162 64q0 34 27 57t72 23t72.5 -23t27.5 -57q0 -35 -27 -58t-73 -23t-72.5 22.5t-26.5 58.5zM279 202h-36q-1 88 -22.5 166.5t-42 135t-20.5 92.5q0 42 32 66t71 24t71 -24t32 -66q0 -36 -20.5 -92.5t-42 -135t-22.5 -166.5z"/>
<glyph glyph-name="quotedbl" horiz-adv-x="709" unicode='&quot;' d="M507 344h-36q-4 59 -22 111t-33.5 91t-15.5 69q0 27 23 49t67 22t66.5 -21.5t22.5 -49.5q0 -30 -16 -69t-34 -91t-22 -111zM237 344h-36q-4 59 -22 111t-33.5 91t-15.5 69q0 27 23 49t67 22t66.5 -21.5t22.5 -49.5q0 -30 -16 -69t-34 -91t-22 -111z"/>
<glyph glyph-name="numbersign" horiz-adv-x="647" unicode="#" d="M216 231h155l46 150h-155zM115 38l49 157h-132v36h143l46 150h-116v36h128l50 159h41l-50 -159h155l50 159h41l-50 -159h145v-36h-157l-46 -150h130v-36h-141l-49 -157h-41l49 157h-155l-49 -157h-41z"/>
<glyph glyph-name="dollar" horiz-adv-x="867" unicode="$" d="M230 537q0 -14 3 -24t13 -24.5t34 -26.5t61 -21v198q-54 -13 -82.5 -40t-28.5 -62zM529 232h-2v-211q63 15 88.5 45.5t25.5 61.5q0 37 -24.5 63t-87.5 41zM435 649q-33 0 -58 -3v-214l114 -25v239q-25 3 -56 3zM430 11q34 0 61 3v227l-114 27v-255q16 -2 53 -2zM341 -93 v78q-117 11 -179.5 50t-62.5 100q0 36 26.5 57.5t64.5 21.5q37 0 59.5 -17t22.5 -44q0 -25 -18 -41t-18 -28q0 -20 24.5 -39t80.5 -28v259l-7 2q-51 12 -86 25.5t-67.5 36t-48.5 56.5t-16 80q0 73 58.5 126t166.5 70v82h36v-78q27 3 58 3q27 0 56 -3v78h36v-81 q100 -14 163.5 -51.5t63.5 -86.5q0 -35 -24 -55t-63 -20t-62.5 13.5t-23.5 38.5q0 22 16.5 38t16.5 33q0 16 -23 31.5t-64 24.5v-240l7 -1q117 -26 170.5 -72.5t53.5 -133.5q0 -79 -58.5 -133.5t-172.5 -70.5v-81h-36v77q-29 -3 -61 -3q-36 0 -53 1v-75h-36z"/>
<glyph glyph-name="percent" horiz-adv-x="1158" unicode="%" d="M339 -19l436 698h45l-436 -698h-45zM858 13q54 0 77 38t23 124q0 88 -24 126.5t-76 38.5q-51 0 -76 -39.5t-25 -125.5q0 -162 101 -162zM638 175q0 85 66 138.5t154 53.5q86 0 152 -53.5t66 -138.5q0 -86 -65.5 -137.5t-152.5 -51.5q-88 0 -154 52t-66 137zM302 337 q54 0 77 38t23 124q0 88 -24 126.5t-76 38.5q-51 0 -76 -39.5t-25 -125.5q0 -162 101 -162zM82 499q0 85 66 138.5t154 53.5q86 0 152 -53.5t66 -138.5q0 -86 -65.5 -137.5t-152.5 -51.5q-88 0 -154 52t-66 137z"/>
<glyph glyph-name="ampersand" horiz-adv-x="1127" unicode="&amp;" d="M509 455q59 23 83 50.5t24 68.5q0 34 -24.5 57.5t-65.5 23.5q-37 0 -56 -18.5t-19 -50.5q0 -49 58 -131zM641 33q-58 42 -153 152q-65 76 -128 178q-64 -42 -64 -144q0 -103 53.5 -152t158.5 -51h13q65 0 120 17zM731 352v30h317v-30h-140v-30q0 -133 -87 -225 q58 -44 111 -44q49 0 83 41l8 10l23 -16l-5 -7q-37 -53 -84.5 -76.5t-122.5 -23.5q-97 0 -155 29q-82 -29 -194 -29q-176 0 -266.5 51t-90.5 148q0 146 219 210q-19 28 -31 65.5t-12 66.5q0 79 60 121.5t142 42.5q68 0 105.5 -33t37.5 -81q0 -95 -122 -143q50 -70 104 -136 q91 -111 163 -174q77 85 77 193v40h-140z"/>
<glyph glyph-name="quotesingle" horiz-adv-x="439" unicode="&apos;" d="M237 344h-36q-4 59 -22 111t-33.5 91t-15.5 69q0 27 23 49t67 22t66.5 -21.5t22.5 -49.5q0 -30 -16 -69t-34 -91t-22 -111z"/>
<glyph glyph-name="parenleft" horiz-adv-x="453" unicode="(" d="M414 -99l-15 -27q-148 73 -229.5 191t-81.5 265t81.5 265t229.5 191l15 -27q-37 -20 -62.5 -43.5t-52.5 -69.5t-41 -125.5t-14 -190.5t14 -190.5t41 -125.5t52.5 -69.5t62.5 -43.5z"/>
<glyph glyph-name="parenright" horiz-adv-x="453" unicode=")" d="M54 -126l-15 27q37 20 62.5 43.5t52.5 69.5t41 125.5t14 190.5t-14 190.5t-41 125.5t-52.5 69.5t-62.5 43.5l15 27q148 -73 229.5 -191t81.5 -265t-81.5 -265t-229.5 -191z"/>
<glyph glyph-name="asterisk" horiz-adv-x="579" unicode="*" d="M275 451v23l-19 -12q-27 -17 -45 -47t-29 -36q-9 -6 -23 -6q-24 0 -38 25q-8 13 -8 27q0 23 22 36q12 6 34 6h11q37 0 64 16l19 11l-19 11q-29 16 -64 16h-16q-18 0 -29 6q-22 13 -22 36q0 14 8 27q14 25 38 25q14 0 23 -6q11 -6 29 -36t45 -47l19 -12v23 q0 32 -17.5 62.5t-17.5 42.5q0 18 11.5 31t35.5 13t35.5 -13t11.5 -31q0 -12 -17.5 -42.5t-17.5 -62.5v-23l19 12q28 16 46 46.5t28 36.5q9 6 23 6q24 0 38 -25q8 -13 8 -27q0 -23 -22 -36q-11 -6 -29 -6h-17q-34 0 -63 -16l-19 -11l19 -11q29 -16 64 -16h16q18 0 29 -6 q22 -13 22 -36q0 -14 -8 -27q-14 -25 -38 -25q-14 0 -23 6q-10 6 -28 36.5t-46 46.5l-19 12v-23q0 -32 17.5 -62.5t17.5 -42.5q0 -18 -11.5 -31t-35.5 -13t-35.5 13t-11.5 31q0 12 17.5 42.5t17.5 62.5z"/>
<glyph glyph-name="plus" horiz-adv-x="615" unicode="+" d="M101 241v38h188v166h38v-166h188v-38h-188v-166h-38v166h-188z"/>
<glyph glyph-name="comma" horiz-adv-x="440" unicode="," d="M137 -169l-9 29q62 22 94 51t34 81q-23 -9 -50 -9q-39 0 -62 20.5t-23 56.5q0 37 26 58t67 21q46 0 75 -29.5t29 -82.5q0 -73 -48 -122.5t-133 -73.5z"/>
<glyph glyph-name="hyphen" horiz-adv-x="742" unicode="-" d="M200 280v76h342v-76h-342z"/>
<glyph glyph-name="period" horiz-adv-x="440" unicode="." d="M120 64q0 34 27 57t72 23t72.5 -23t27.5 -57q0 -35 -27 -58t-73 -23t-72.5 22.5t-26.5 58.5z"/>
<glyph glyph-name="slash" horiz-adv-x="539" unicode="/" d="M24 -26l445 712h46l-445 -712h-46z"/>
<glyph glyph-name="zero" horiz-adv-x="966" unicode="0" d="M125 330q0 145 110 247t248 102t248 -102t110 -247t-110 -247t-248 -102t-248 102t-110 247zM483 11q54 0 87 26.5t52 98t19 194.5t-19 194.5t-52 98t-87 26.5t-87 -26.5t-52 -98t-19 -194.5t19 -194.5t52 -98t87 -26.5z"/>
<glyph glyph-name="one" horiz-adv-x="645" unicode="1" d="M65 0v30h162v600h-162v30h358v-630h162v-30h-520z"/>
<glyph glyph-name="two" horiz-adv-x="858" unicode="2" d="M80 0v30l157 127q21 17 60.5 48t55.5 44.5t45 38.5t40.5 38.5t29 35.5t24 40t12 40.5t5.5 47.5q0 81 -44.5 119t-117.5 38q-71 0 -122.5 -34t-51.5 -69q0 -14 25 -14q32 0 52.5 -18t20.5 -49q0 -33 -24.5 -52t-62.5 -19q-40 0 -65.5 27t-25.5 71q0 69 77.5 129t215.5 60 q148 0 237 -54t89 -136q0 -42 -25 -80t-73 -73t-96 -64t-118.5 -69t-115.5 -71h399v88h30v-220h-633z"/>
<glyph glyph-name="three" horiz-adv-x="873" unicode="3" d="M292 334v30l62 1q97 1 141 36.5t44 108.5q0 72 -46.5 105.5t-123.5 33.5q-74 0 -123.5 -23.5t-49.5 -51.5q0 -15 16 -15q25 0 41 -15.5t16 -39.5q0 -32 -21 -48.5t-58 -16.5q-39 0 -61 22t-22 57q0 65 78 113t206 48q147 0 237.5 -42.5t90.5 -122.5q0 -70 -65 -112 t-161 -47h6q104 0 178.5 -47.5t74.5 -129.5q0 -87 -103.5 -142t-274.5 -55h-4q-124 1 -200 44.5t-76 103.5q0 34 23 58.5t65 24.5q38 0 60.5 -19.5t22.5 -51.5q0 -23 -15 -38t-35 -17q-16 -1 -16 -13q0 -21 51.5 -41.5t117.5 -20.5q178 0 178 171q0 82 -45.5 117t-146.5 35 h-62z"/>
<glyph glyph-name="four" horiz-adv-x="864" unicode="4" d="M103 191h348v360zM61 161v30l445 469h139v-469h145v-30h-145v-131h150v-30h-494v30h150v131h-390z"/>
<glyph glyph-name="five" horiz-adv-x="853" unicode="5" d="M163 326v334h467v60h30v-192h-467v-169q88 39 203 39q86 0 161.5 -21.5t127 -68t51.5 -109.5q0 -96 -112.5 -157t-266.5 -61q-115 0 -192 44t-77 102q0 34 22.5 58.5t64.5 24.5q38 0 61 -19.5t23 -51.5q0 -23 -15 -38t-35 -17q-16 -1 -16 -13q0 -20 46.5 -40t100.5 -20 q89 0 139.5 44t50.5 136q0 87 -45.5 132t-125.5 45q-47 0 -95 -12t-76 -30h-25z"/>
<glyph glyph-name="six" horiz-adv-x="888" unicode="6" d="M468 11q60 0 93 42.5t33 145.5t-33 145.5t-93 42.5q-136 0 -136 -188t136 -188zM650 679v-30q-145 -18 -218.5 -89t-93.5 -194q20 21 62 36t99 15q128 0 211.5 -60.5t83.5 -151.5q0 -94 -93 -159t-233 -65q-88 0 -164.5 30.5t-127 94.5t-50.5 150q0 152 147 277.5 t377 145.5z"/>
<glyph glyph-name="seven" horiz-adv-x="772" unicode="7" d="M110 432v228h602v-30l-178 -231q-43 -56 -60 -79.5t-32 -57.5t-15 -64q0 -24 22.5 -61t22.5 -69q0 -40 -32 -63.5t-79 -23.5q-48 0 -76.5 26t-28.5 70q0 41 32.5 95t110.5 139l193 213h-452v-92h-30z"/>
<glyph glyph-name="eight" horiz-adv-x="960" unicode="8" d="M343 339q-89 16 -138.5 57t-49.5 103q0 71 89.5 125.5t235.5 54.5t235.5 -54.5t89.5 -125.5q0 -62 -49.5 -103t-138.5 -57q89 -9 153.5 -54t64.5 -119q0 -81 -95.5 -133t-259.5 -52t-259.5 52t-95.5 133q0 74 64.5 119t153.5 54zM480 11q77 0 116 37t39 118 q0 156 -155 156t-155 -156q0 -81 39 -118t116 -37zM480 352q133 0 133 152q0 69 -33.5 107t-99.5 38t-99.5 -38t-33.5 -107q0 -152 133 -152z"/>
<glyph glyph-name="nine" horiz-adv-x="888" unicode="9" d="M420 273q136 0 136 188t-136 188q-60 0 -93 -42.5t-33 -145.5t33 -145.5t93 -42.5zM238 -19v30q145 18 218.5 89t93.5 194q-20 -21 -62 -36t-99 -15q-128 0 -211.5 60.5t-83.5 151.5q0 94 93 159t233 65q88 0 164.5 -30.5t127 -94.5t50.5 -150q0 -152 -147 -277.5 t-377 -145.5z"/>
<glyph glyph-name="colon" horiz-adv-x="440" unicode=":" d="M120 364q0 34 27 57t72 23t72.5 -23t27.5 -57q0 -35 -27 -58t-73 -23t-72.5 22.5t-26.5 58.5zM120 64q0 34 27 57t72 23t72.5 -23t27.5 -57q0 -35 -27 -58t-73 -23t-72.5 22.5t-26.5 58.5z"/>
<glyph glyph-name="semicolon" horiz-adv-x="440" unicode=";" d="M120 364q0 34 27 57t72 23t72.5 -23t27.5 -57q0 -35 -27 -58t-73 -23t-72.5 22.5t-26.5 58.5zM137 -169l-9 29q62 22 94 51t34 81q-23 -9 -50 -9q-39 0 -62 20.5t-23 56.5q0 37 26 58t67 21q46 0 75 -29.5t29 -82.5q0 -73 -48 -122.5t-133 -73.5z"/>
<glyph glyph-name="less" horiz-adv-x="615" unicode="&lt;" d="M123 238v44l369 138v-44l-321 -116l321 -116v-44z"/>
<glyph glyph-name="equal" horiz-adv-x="615" unicode="=" d="M100 160v38h415v-38h-415zM100 322v38h415v-38h-415z"/>
<glyph glyph-name="greater" horiz-adv-x="615" unicode="&gt;" d="M123 100v44l321 116l-321 116v44l369 -138v-44z"/>
<glyph glyph-name="question" horiz-adv-x="724" unicode="?" d="M216 64q0 34 27 57t72 23t72.5 -23t27.5 -57q0 -35 -27 -58t-73 -23t-72.5 22.5t-26.5 58.5zM297 200v168h27q19 -40 68 -40q34 0 55.5 12.5t30.5 38.5t11 48t2 60q0 93 -35 131t-119 38q-51 0 -96.5 -16.5t-45.5 -44.5q0 -9 10 -14.5t22 -9.5t22 -18t10 -38 q0 -30 -24.5 -48.5t-67.5 -18.5q-40 0 -65 23t-25 56q0 68 83.5 113.5t189.5 45.5q147 0 236 -47.5t89 -145.5q0 -97 -73 -151t-173 -54q-66 0 -96 26v-114h-36z"/>
<glyph glyph-name="at" horiz-adv-x="1203" unicode="@" d="M667 327l33 91q-4 20 -21 33.5t-43 13.5q-68 0 -123.5 -68.5t-55.5 -136.5q0 -32 17.5 -48t43.5 -16q44 0 85.5 35t63.5 96zM911 71l16 -30q-51 -32 -137.5 -49.5t-167.5 -17.5q-132 0 -244 41t-182.5 123t-70.5 190q0 105 71.5 188.5t181 126.5t230.5 43 q126 0 230 -31.5t172 -101t68 -166.5q0 -64 -29 -112.5t-75 -75t-96 -39.5t-100 -13q-62 0 -99 24.5t-36 57.5q-59 -71 -156 -71q-57 0 -102 31.5t-45 90.5q0 80 85.5 149.5t196.5 69.5q67 0 94 -38l11 30h112l-67 -182q-24 -68 -24 -96q0 -35 53 -35q105 0 173.5 58 t68.5 150q0 121 -122 194.5t-311 73.5q-117 0 -219 -42.5t-164 -118t-62 -165.5q0 -139 131 -230t326 -91q81 0 162 18t127 46z"/>
<glyph glyph-name="A" horiz-adv-x="1103" unicode="A" d="M311 220h297l-148 252zM20 0v30h140l372 642h34l377 -642h140v-30h-523v30h160l-95 160h-331l-94 -160h160v-30h-340z"/>
<glyph glyph-name="B" horiz-adv-x="1115" unicode="B" d="M460 367h138q162 0 162 133q0 34 -10 58t-26 37.5t-42.5 21.5t-53 10.5t-63.5 2.5h-105v-263zM460 30h138q47 0 81.5 6t64.5 22t45.5 47.5t15.5 78.5q0 153 -213 153h-132v-307zM100 0v30h160v600h-160v30h533q135 0 221 -40.5t86 -116.5q0 -63 -68.5 -104.5 t-169.5 -43.5q125 -2 211.5 -48.5t86.5 -124.5t-81.5 -130t-237.5 -52h-581z"/>
<glyph glyph-name="C" horiz-adv-x="1056" unicode="C" d="M911 -19h-30q-4 42 -37 42q-8 0 -105 -24.5t-166 -24.5q-120 0 -220 42.5t-161.5 124.5t-61.5 189t61.5 189t161.5 124.5t219 42.5q66 0 122 -12t90 -24.5t44 -12.5q15 0 21 9.5t8 32.5h30v-258h-30q-18 93 -95 164t-189 71q-58 0 -99.5 -18t-65 -46t-37.5 -72.5 t-18 -87.5t-4 -102t4 -102t18 -87.5t38 -72.5t66 -46t100 -18q120 0 206.5 70.5t99.5 183.5h30v-277z"/>
<glyph glyph-name="D" horiz-adv-x="1185" unicode="D" d="M460 30h124q136 0 194 68t58 232q0 162 -59.5 231t-192.5 69h-124v-600zM100 0v30h160v600h-160v30h503q188 0 320 -93.5t132 -236.5q0 -145 -132.5 -237.5t-319.5 -92.5h-503z"/>
<glyph glyph-name="E" horiz-adv-x="1138" unicode="E" d="M100 0v30h160v600h-160v30h850v-220h-30q0 75 -58 132.5t-171 57.5h-231v-277h70q85 0 127.5 36.5t42.5 89.5h30v-279h-30q0 52 -42.5 87.5t-127.5 35.5h-70v-293h235q77 0 135.5 19t91.5 50.5t49.5 67t16.5 73.5h30v-240h-918z"/>
<glyph glyph-name="F" horiz-adv-x="1018" unicode="F" d="M100 0v30h160v600h-160v30h828v-220h-30q0 72 -70.5 131t-186.5 59h-181v-289h60q85 0 127.5 36.5t42.5 89.5h30v-279h-30q0 52 -42.5 87.5t-127.5 35.5h-60v-281h170v-30h-530z"/>
<glyph glyph-name="G" horiz-adv-x="1135" unicode="G" d="M627 260v30h468v-30h-140v-279h-30q0 53 -51 53q-18 0 -125.5 -30t-187.5 -30q-81 0 -158.5 25t-138 70t-97.5 113t-37 148q0 106 63 188.5t164 125t220 42.5q66 0 125 -12t95 -24.5t47 -12.5q15 0 21 9.5t8 32.5h30v-247h-30q-24 95 -105.5 159.5t-195.5 64.5 q-68 0 -113 -22.5t-68.5 -68t-32.5 -100.5t-9 -135q0 -56 4 -98.5t17.5 -87.5t36 -74t62.5 -47.5t94 -18.5q204 0 204 170v86h-140z"/>
<glyph glyph-name="H" horiz-adv-x="1300" unicode="H" d="M100 0v30h160v600h-160v30h485v-30h-125v-275h380v275h-125v30h485v-30h-160v-600h160v-30h-485v30h125v295h-380v-295h125v-30h-485z"/>
<glyph glyph-name="I" horiz-adv-x="720" unicode="I" d="M100 0v30h160v600h-160v30h520v-30h-160v-600h160v-30h-520z"/>
<glyph glyph-name="J" horiz-adv-x="865" unicode="J" d="M445 162v468h-160v30h520v-30h-160v-414q0 -120 -84.5 -181t-235.5 -61q-113 0 -186.5 45t-73.5 112q0 36 26.5 60t74.5 24q46 0 71 -19t25 -49q0 -27 -21.5 -47t-21.5 -33q0 -27 28.5 -45t82.5 -18q68 0 91.5 35t23.5 123z"/>
<glyph glyph-name="K" horiz-adv-x="1217" unicode="K" d="M100 0v30h160v600h-160v30h510v-30h-150v-288l413 288h-140v30h357v-30h-160l-230 -168l367 -432h140v-30h-517v30h115l-266 326l-79 -58v-268h135v-30h-495z"/>
<glyph glyph-name="L" horiz-adv-x="1020" unicode="L" d="M100 0v30h160v600h-160v30h520v-30h-160v-600h120q325 0 345 210h30v-240h-855z"/>
<glyph glyph-name="M" horiz-adv-x="1407" unicode="M" d="M100 0v30h160v600h-160v30h376l233 -442l231 442h367v-30h-160v-600h160v-30h-510v30h150v556l-308 -586h-36l-308 586v-556h160v-30h-355z"/>
<glyph glyph-name="N" horiz-adv-x="1203" unicode="N" d="M100 0v30h160v600h-160v30h361l467 -428v398h-160v30h345v-30h-150v-650h-34l-634 585v-535h160v-30h-355z"/>
<glyph glyph-name="O" d="M575 4q58 0 100 18t66 46t38 72.5t18 87.5t4 102t-4 102t-18 87.5t-38 72.5t-66 46t-100 18t-100 -18t-66 -46t-38 -72.5t-18 -87.5t-4 -102t4 -102t18 -87.5t38 -72.5t66 -46t100 -18zM130 330q0 106 63.5 189t164.5 125t217 42t217 -42t164.5 -125t63.5 -189 t-63.5 -189t-164.5 -125t-217 -42t-217 42t-164.5 125t-63.5 189z" unicode="O"/>
<glyph glyph-name="P" horiz-adv-x="1069" unicode="P" d="M460 630v-329q50 -7 106 -7q119 0 168.5 36.5t49.5 132.5q0 91 -52 129t-165 38h-107zM100 0v30h160v600h-160v30h520q165 0 267 -52t102 -142q0 -65 -60 -112t-150 -68.5t-195 -21.5l-124 5v-239h160v-30h-520z"/>
<glyph glyph-name="Q" d="M575 4q58 0 100 18t66 46t38 72.5t18 87.5t4 102t-4 102t-18 87.5t-38 72.5t-66 46t-100 18t-100 -18t-66 -46t-38 -72.5t-18 -87.5t-4 -102t4 -102t18 -87.5t38 -72.5t66 -46t100 -18zM299 -100l-5 29l200 52q-156 20 -260 115t-104 234q0 106 63.5 189t164.5 125 t217 42t217 -42t164.5 -125t63.5 -189q0 -80 -36 -147t-95.5 -111t-134.5 -69.5t-156 -28.5q-33 -1 -94 -16l-127 -33q77 5 123 5q77 0 119 -13t103 -50l44 -27.5t39.5 -24t29.5 -12.5t36 -6q58 0 100 42l20 -22q-6 -9 -29 -25.5t-74.5 -35.5t-108.5 -19q-131 0 -230 69 q-13 9 -38 27t-34.5 24.5t-28.5 17.5t-31.5 14.5t-31.5 7t-40 3.5h-46z" unicode="Q"/>
<glyph glyph-name="R" horiz-adv-x="1201" unicode="R" d="M460 358h110q188 0 188 136t-192 136h-106v-272zM100 0v30h160v600h-160v30h547q150 0 233 -42t83 -120q0 -64 -69 -106t-174 -44q131 -3 202 -60t71 -135v-62q0 -77 57 -77q42 0 86 28l15 -25q-58 -33 -133 -33q-33 0 -63 4.5t-60 17.5t-52 33t-36 53t-14 75v35 q0 126 -177 126h-156v-298h160v-30h-520z"/>
<glyph glyph-name="S" horiz-adv-x="1042" unicode="S" d="M161 -14v244h30q13 -88 110.5 -157t251.5 -69q92 0 141.5 28.5t49.5 79.5q0 53 -60 85t-233 72q-166 38 -228.5 84.5t-62.5 122.5q0 91 90.5 150.5t228.5 59.5q75 0 140 -11.5t104.5 -23t51.5 -11.5q23 0 25 39h30v-226h-30q-28 101 -118 152t-214 51q-82 0 -127.5 -28 t-45.5 -72q0 -48 55 -74t205 -60q196 -45 266.5 -94t70.5 -136q0 -90 -93 -154t-252 -64q-77 0 -151.5 13t-121 25.5t-55.5 12.5q-28 0 -28 -39h-30z"/>
<glyph glyph-name="T" horiz-adv-x="1066" unicode="T" d="M273 0v30h160v600h-78q-53 0 -96.5 -20.5t-70 -53t-42 -68t-17.5 -70.5h-30l1 242h866l1 -242h-30q-2 35 -17.5 70.5t-42 68t-70 53t-96.5 20.5h-78v-600h160v-30h-520z"/>
<glyph glyph-name="U" horiz-adv-x="1187" unicode="U" d="M230 221v409h-160v30h520v-30h-160v-408q0 -102 59 -154.5t170 -52.5q113 0 187.5 58t74.5 173v384h-160v30h356v-30h-160v-384q0 -129 -88 -195.5t-235 -66.5q-78 0 -147.5 13.5t-128.5 41t-93.5 74.5t-34.5 108z"/>
<glyph glyph-name="V" horiz-adv-x="1083" unicode="V" d="M527 -12l-367 642h-140v30h522v-30h-160l250 -443l250 443h-160v30h341v-30h-140l-361 -642h-35z"/>
<glyph glyph-name="W" horiz-adv-x="1528" unicode="W" d="M485 -12l-325 642h-140v30h468v-30h-110l210 -419l157 310l-55 109h-100v30h438v-30h-120l210 -419l210 419h-160v30h340v-30h-140l-324 -642h-29l-250 494l-251 -494h-29z"/>
<glyph glyph-name="X" horiz-adv-x="1093" unicode="X" d="M55 0v30h140l263 281l-283 319h-140v30h519v-30h-140l184 -208l195 208h-140v30h326v-30h-140l-219 -233l328 -367h140v-30h-540v30h160l-228 256l-240 -256h160v-30h-345z"/>
<glyph glyph-name="Y" horiz-adv-x="1112" unicode="Y" d="M311 0v30h160v222l-311 378h-150v30h550v-30h-150l249 -302l249 302h-150v30h344v-30h-150l-281 -342v-258h160v-30h-520z"/>
<glyph glyph-name="Z" horiz-adv-x="1008" unicode="Z" d="M110 0v30l536 600h-199q-141 0 -211.5 -56t-70.5 -144h-30v230h741v-30l-533 -600h212q156 0 232 55t76 145h30v-230h-783z"/>
<glyph glyph-name="bracketleft" horiz-adv-x="550" unicode="[" d="M190 -140v940h315v-30h-161v-880h161v-30h-315z"/>
<glyph glyph-name="backslash" horiz-adv-x="539" unicode="\" d="M469 -26l-445 712h46l445 -712h-46z"/>
<glyph glyph-name="bracketright" horiz-adv-x="550" unicode="]" d="M45 -140v30h161v880h-161v30h315v-940h-315z"/>
<glyph glyph-name="asciicircum" horiz-adv-x="743" unicode="^" d="M100 238l251 371h32l260 -371h-171l-165 240l-167 -240h-40z"/>
<glyph glyph-name="underscore" horiz-adv-x="500" unicode="_" d="M0 -142v38h500v-38h-500z"/>
<glyph glyph-name="grave" horiz-adv-x="562" unicode="`" d="M264 863l198 -125l-13 -23l-251 75q-99 30 -99 69q0 23 15.5 38t39.5 15q32 0 110 -49z"/>
<glyph glyph-name="a" horiz-adv-x="1103" unicode="a" d="M311 220h297l-148 252zM20 0v30h140l372 642h34l377 -642h140v-30h-523v30h160l-95 160h-331l-94 -160h160v-30h-340z"/>
<glyph glyph-name="b" horiz-adv-x="1115" unicode="b" d="M460 367h138q162 0 162 133q0 34 -10 58t-26 37.5t-42.5 21.5t-53 10.5t-63.5 2.5h-105v-263zM460 30h138q47 0 81.5 6t64.5 22t45.5 47.5t15.5 78.5q0 153 -213 153h-132v-307zM100 0v30h160v600h-160v30h533q135 0 221 -40.5t86 -116.5q0 -63 -68.5 -104.5 t-169.5 -43.5q125 -2 211.5 -48.5t86.5 -124.5t-81.5 -130t-237.5 -52h-581z"/>
<glyph glyph-name="c" horiz-adv-x="1056" unicode="c" d="M911 -19h-30q-4 42 -37 42q-8 0 -105 -24.5t-166 -24.5q-120 0 -220 42.5t-161.5 124.5t-61.5 189t61.5 189t161.5 124.5t219 42.5q66 0 122 -12t90 -24.5t44 -12.5q15 0 21 9.5t8 32.5h30v-258h-30q-18 93 -95 164t-189 71q-58 0 -99.5 -18t-65 -46t-37.5 -72.5 t-18 -87.5t-4 -102t4 -102t18 -87.5t38 -72.5t66 -46t100 -18q120 0 206.5 70.5t99.5 183.5h30v-277z"/>
<glyph glyph-name="d" horiz-adv-x="1185" unicode="d" d="M460 30h124q136 0 194 68t58 232q0 162 -59.5 231t-192.5 69h-124v-600zM100 0v30h160v600h-160v30h503q188 0 320 -93.5t132 -236.5q0 -145 -132.5 -237.5t-319.5 -92.5h-503z"/>
<glyph glyph-name="e" horiz-adv-x="1138" unicode="e" d="M100 0v30h160v600h-160v30h850v-220h-30q0 75 -58 132.5t-171 57.5h-231v-277h70q85 0 127.5 36.5t42.5 89.5h30v-279h-30q0 52 -42.5 87.5t-127.5 35.5h-70v-293h235q77 0 135.5 19t91.5 50.5t49.5 67t16.5 73.5h30v-240h-918z"/>
<glyph glyph-name="f" horiz-adv-x="1018" unicode="f" d="M100 0v30h160v600h-160v30h828v-220h-30q0 72 -70.5 131t-186.5 59h-181v-289h60q85 0 127.5 36.5t42.5 89.5h30v-279h-30q0 52 -42.5 87.5t-127.5 35.5h-60v-281h170v-30h-530z"/>
<glyph glyph-name="g" horiz-adv-x="1135" unicode="g" d="M627 260v30h468v-30h-140v-279h-30q0 53 -51 53q-18 0 -125.5 -30t-187.5 -30q-81 0 -158.5 25t-138 70t-97.5 113t-37 148q0 106 63 188.5t164 125t220 42.5q66 0 125 -12t95 -24.5t47 -12.5q15 0 21 9.5t8 32.5h30v-247h-30q-24 95 -105.5 159.5t-195.5 64.5 q-68 0 -113 -22.5t-68.5 -68t-32.5 -100.5t-9 -135q0 -56 4 -98.5t17.5 -87.5t36 -74t62.5 -47.5t94 -18.5q204 0 204 170v86h-140z"/>
<glyph glyph-name="h" horiz-adv-x="1300" unicode="h" d="M100 0v30h160v600h-160v30h485v-30h-125v-275h380v275h-125v30h485v-30h-160v-600h160v-30h-485v30h125v295h-380v-295h125v-30h-485z"/>
<glyph glyph-name="i" horiz-adv-x="720" unicode="i" d="M100 0v30h160v600h-160v30h520v-30h-160v-600h160v-30h-520z"/>
<glyph glyph-name="j" horiz-adv-x="865" unicode="j" d="M445 162v468h-160v30h520v-30h-160v-414q0 -120 -84.5 -181t-235.5 -61q-113 0 -186.5 45t-73.5 112q0 36 26.5 60t74.5 24q46 0 71 -19t25 -49q0 -27 -21.5 -47t-21.5 -33q0 -27 28.5 -45t82.5 -18q68 0 91.5 35t23.5 123z"/>
<glyph glyph-name="k" horiz-adv-x="1217" unicode="k" d="M100 0v30h160v600h-160v30h510v-30h-150v-288l413 288h-140v30h357v-30h-160l-230 -168l367 -432h140v-30h-517v30h115l-266 326l-79 -58v-268h135v-30h-495z"/>
<glyph glyph-name="l" horiz-adv-x="1020" unicode="l" d="M100 0v30h160v600h-160v30h520v-30h-160v-600h120q325 0 345 210h30v-240h-855z"/>
<glyph glyph-name="m" horiz-adv-x="1407" unicode="m" d="M100 0v30h160v600h-160v30h376l233 -442l231 442h367v-30h-160v-600h160v-30h-510v30h150v556l-308 -586h-36l-308 586v-556h160v-30h-355z"/>
<glyph glyph-name="n" horiz-adv-x="1203" unicode="n" d="M100 0v30h160v600h-160v30h361l467 -428v398h-160v30h345v-30h-150v-650h-34l-634 585v-535h160v-30h-355z"/>
<glyph glyph-name="o" d="M575 4q58 0 100 18t66 46t38 72.5t18 87.5t4 102t-4 102t-18 87.5t-38 72.5t-66 46t-100 18t-100 -18t-66 -46t-38 -72.5t-18 -87.5t-4 -102t4 -102t18 -87.5t38 -72.5t66 -46t100 -18zM130 330q0 106 63.5 189t164.5 125t217 42t217 -42t164.5 -125t63.5 -189 t-63.5 -189t-164.5 -125t-217 -42t-217 42t-164.5 125t-63.5 189z" unicode="o"/>
<glyph glyph-name="p" horiz-adv-x="1069" unicode="p" d="M460 630v-329q50 -7 106 -7q119 0 168.5 36.5t49.5 132.5q0 91 -52 129t-165 38h-107zM100 0v30h160v600h-160v30h520q165 0 267 -52t102 -142q0 -65 -60 -112t-150 -68.5t-195 -21.5l-124 5v-239h160v-30h-520z"/>
<glyph glyph-name="q" d="M575 4q58 0 100 18t66 46t38 72.5t18 87.5t4 102t-4 102t-18 87.5t-38 72.5t-66 46t-100 18t-100 -18t-66 -46t-38 -72.5t-18 -87.5t-4 -102t4 -102t18 -87.5t38 -72.5t66 -46t100 -18zM299 -100l-5 29l200 52q-156 20 -260 115t-104 234q0 106 63.5 189t164.5 125 t217 42t217 -42t164.5 -125t63.5 -189q0 -80 -36 -147t-95.5 -111t-134.5 -69.5t-156 -28.5q-33 -1 -94 -16l-127 -33q77 5 123 5q77 0 119 -13t103 -50l44 -27.5t39.5 -24t29.5 -12.5t36 -6q58 0 100 42l20 -22q-6 -9 -29 -25.5t-74.5 -35.5t-108.5 -19q-131 0 -230 69 q-13 9 -38 27t-34.5 24.5t-28.5 17.5t-31.5 14.5t-31.5 7t-40 3.5h-46z" unicode="q"/>
<glyph glyph-name="r" horiz-adv-x="1201" unicode="r" d="M460 358h110q188 0 188 136t-192 136h-106v-272zM100 0v30h160v600h-160v30h547q150 0 233 -42t83 -120q0 -64 -69 -106t-174 -44q131 -3 202 -60t71 -135v-62q0 -77 57 -77q42 0 86 28l15 -25q-58 -33 -133 -33q-33 0 -63 4.5t-60 17.5t-52 33t-36 53t-14 75v35 q0 126 -177 126h-156v-298h160v-30h-520z"/>
<glyph glyph-name="s" horiz-adv-x="1042" unicode="s" d="M161 -14v244h30q13 -88 110.5 -157t251.5 -69q92 0 141.5 28.5t49.5 79.5q0 53 -60 85t-233 72q-166 38 -228.5 84.5t-62.5 122.5q0 91 90.5 150.5t228.5 59.5q75 0 140 -11.5t104.5 -23t51.5 -11.5q23 0 25 39h30v-226h-30q-28 101 -118 152t-214 51q-82 0 -127.5 -28 t-45.5 -72q0 -48 55 -74t205 -60q196 -45 266.5 -94t70.5 -136q0 -90 -93 -154t-252 -64q-77 0 -151.5 13t-121 25.5t-55.5 12.5q-28 0 -28 -39h-30z"/>
<glyph glyph-name="t" horiz-adv-x="1066" unicode="t" d="M273 0v30h160v600h-78q-53 0 -96.5 -20.5t-70 -53t-42 -68t-17.5 -70.5h-30l1 242h866l1 -242h-30q-2 35 -17.5 70.5t-42 68t-70 53t-96.5 20.5h-78v-600h160v-30h-520z"/>
<glyph glyph-name="u" horiz-adv-x="1187" unicode="u" d="M230 221v409h-160v30h520v-30h-160v-408q0 -102 59 -154.5t170 -52.5q113 0 187.5 58t74.5 173v384h-160v30h356v-30h-160v-384q0 -129 -88 -195.5t-235 -66.5q-78 0 -147.5 13.5t-128.5 41t-93.5 74.5t-34.5 108z"/>
<glyph glyph-name="v" horiz-adv-x="1083" unicode="v" d="M527 -12l-367 642h-140v30h522v-30h-160l250 -443l250 443h-160v30h341v-30h-140l-361 -642h-35z"/>
<glyph glyph-name="w" horiz-adv-x="1528" unicode="w" d="M485 -12l-325 642h-140v30h468v-30h-110l210 -419l157 310l-55 109h-100v30h438v-30h-120l210 -419l210 419h-160v30h340v-30h-140l-324 -642h-29l-250 494l-251 -494h-29z"/>
<glyph glyph-name="x" horiz-adv-x="1093" unicode="x" d="M55 0v30h140l263 281l-283 319h-140v30h519v-30h-140l184 -208l195 208h-140v30h326v-30h-140l-219 -233l328 -367h140v-30h-540v30h160l-228 256l-240 -256h160v-30h-345z"/>
<glyph glyph-name="y" horiz-adv-x="1112" unicode="y" d="M311 0v30h160v222l-311 378h-150v30h550v-30h-150l249 -302l249 302h-150v30h344v-30h-150l-281 -342v-258h160v-30h-520z"/>
<glyph glyph-name="z" horiz-adv-x="1008" unicode="z" d="M110 0v30l536 600h-199q-141 0 -211.5 -56t-70.5 -144h-30v230h741v-30l-533 -600h212q156 0 232 55t76 145h30v-230h-783z"/>
<glyph glyph-name="braceleft" horiz-adv-x="453" unicode="{" d="M386 -110h37v-30h-59q-121 0 -182 47.5t-61 134.5q0 40 12.5 74.5t30 57.5t35 42t30 36t12.5 31q0 31 -37 31h-36v32h36q37 0 37 31q0 14 -12.5 31t-30 36t-35 42t-30 57.5t-12.5 74.5q0 87 61 134.5t182 47.5h59v-30h-37q-67 0 -97.5 -30t-30.5 -94q0 -39 19 -118.5 t19 -112.5q0 -66 -47 -85q47 -19 47 -85q0 -33 -19 -112.5t-19 -118.5q0 -64 30.5 -94t97.5 -30z"/>
<glyph glyph-name="bar" horiz-adv-x="543" unicode="|" d="M250 -25v725h43v-725h-43z"/>
<glyph glyph-name="braceright" horiz-adv-x="453" unicode="}" d="M30 -140v30h37q67 0 97.5 30t30.5 94q0 39 -19 118.5t-19 112.5q0 66 47 85q-47 19 -47 85q0 33 19 112.5t19 118.5q0 64 -30.5 94t-97.5 30h-37v30h59q121 0 182 -47.5t61 -134.5q0 -49 -19 -90.5t-41 -64t-41 -46t-19 -40.5q0 -31 37 -31h36v-32h-36q-37 0 -37 -31 q0 -17 19 -40.5t41 -46t41 -64t19 -90.5q0 -87 -61 -134.5t-182 -47.5h-59z"/>
<glyph glyph-name="asciitilde" horiz-adv-x="743" unicode="~" d="M110 306l-23 11q72 165 186 165q43 0 121 -29q93 -34 119 -34q41 0 68 14t52 55l23 -11q-72 -165 -186 -165q-43 0 -121 29q-89 34 -119 34q-41 0 -68 -14t-52 -55z"/>
<glyph glyph-name="uni00A0" horiz-adv-x="500" unicode=" "/>
<glyph glyph-name="exclamdown" horiz-adv-x="523" unicode="¡" d="M162 596q0 36 26.5 58.5t72.5 22.5t73 -23t27 -58q0 -34 -27.5 -57t-72.5 -23t-72 23t-27 57zM243 458h36q1 -88 22.5 -166.5t42 -135t20.5 -92.5q0 -42 -32 -66t-71 -24t-71 24t-32 66q0 36 20.5 92.5t42 135t22.5 166.5z"/>
<glyph glyph-name="cent" horiz-adv-x="770" unicode="¢" d="M411 143v371q-77 -5 -106.5 -52.5t-29.5 -133.5q0 -88 31 -133.5t105 -51.5zM411 0v111q-135 2 -223 58.5t-88 155.5t88.5 158.5t222.5 61.5v115h36v-116q105 -4 167.5 -37.5t62.5 -78.5q0 -31 -20 -51.5t-56 -20.5q-33 0 -53 14.5t-20 37.5q0 22 14.5 36.5t14.5 23.5 q0 18 -29.5 31t-80.5 15v-371q130 4 211 81l22 -24q-85 -80 -233 -89v-111h-36z"/>
<glyph glyph-name="sterling" horiz-adv-x="811" unicode="£" d="M275 76q-91 43 -132 43q-33 0 -51.5 -17.5t-18.5 -38.5q0 -19 16 -31.5t46 -12.5q87 0 140 57zM111 313v38h101q-57 78 -57 135q0 85 97.5 139t237.5 54q99 0 172 -36t73 -85q0 -33 -21.5 -53.5t-63.5 -20.5q-36 0 -55 18t-19 42q0 19 14 35.5t14 28.5q0 17 -35 29 t-76 12q-62 0 -100 -28.5t-38 -90.5q0 -24 5 -50.5t10 -41.5t17 -46t15 -41h204v-38h-192q9 -33 9 -64q0 -56 -32 -112q21 -3 69.5 -11t72.5 -11.5t58 -7t58 -3.5q68 0 108 56l10 15l25 -13l-7 -14q-47 -94 -98.5 -129t-122.5 -35q-92 0 -248 72q-90 -67 -181 -67 q-96 0 -96 73q0 41 38.5 67.5t108.5 26.5q57 0 123 -8q2 14 2 22q0 23 -12 50t-22.5 42.5t-36.5 50.5h-129z"/>
<glyph glyph-name="currency" horiz-adv-x="580" unicode="¤" d="M184 241q40 -43 104 -43q63 0 105 43t42 105q0 63 -41 106.5t-105 43.5t-104.5 -43.5t-40.5 -106.5q0 -60 40 -105zM162 170l-61 -60l-51 50l62 62q-38 60 -38 124q0 73 42 128l-66 65l51 50l65 -64q55 40 124 40q67 0 125 -40l65 64l50 -51l-65 -65q40 -58 40 -127 q0 -68 -38 -123l63 -63l-50 -50l-63 61q-53 -42 -127 -42q-75 0 -128 41z"/>
<glyph glyph-name="yen" horiz-adv-x="874" unicode="¥" d="M218 0v30h150v162h-199v34h199v88h-199v34h175l-219 282h-115v30h424v-30h-115l207 -272l181 272h-115v30h272v-30h-115l-188 -282h186v-34h-199v-88h199v-34h-199v-162h161v-30h-491z"/>
<glyph glyph-name="brokenbar" horiz-adv-x="614" unicode="¦" d="M250 -25v241h43v-241h-43zM250 459v241h43v-241h-43z"/>
<glyph glyph-name="section" horiz-adv-x="940" unicode="§" d="M330 172l281 -75l17 -5q23 10 41 33t18 50q0 54 -78 76l-281 75q-4 1 -17 5q-23 -11 -41 -33.5t-18 -49.5q0 -54 78 -76zM539 -35l-261 68q-149 38 -149 156q0 54 40 96t100 62q-109 50 -109 151q0 78 80 133t231 55q130 0 217 -45.5t87 -99.5q0 -32 -21.5 -54t-58.5 -22 q-34 0 -55.5 15.5t-21.5 39.5q0 23 15.5 43.5t15.5 29.5q0 22 -51.5 42.5t-126.5 20.5q-94 0 -140 -27.5t-46 -73.5q0 -36 32.5 -60t82.5 -37l261 -68q149 -38 149 -156q0 -54 -40 -96t-100 -62q109 -51 109 -151q0 -79 -77 -133t-234 -54q-148 0 -236 46.5t-88 103.5 q0 32 21.5 54t58.5 22q34 0 55.5 -15.5t21.5 -39.5q0 -23 -15.5 -43.5t-15.5 -29.5q0 -14 22.5 -29.5t69.5 -27t106 -11.5q186 0 186 100q0 36 -32.5 60t-82.5 37z"/>
<glyph glyph-name="dieresis" horiz-adv-x="562" unicode="¨" d="M355 797q0 30 21 51t51 21t51 -21t21 -51t-21 -51t-51 -21t-51 21t-21 51zM63 797q0 30 21 51t51 21t51 -21t21 -51t-21 -51t-51 -21t-51 21t-21 51z"/>
<glyph glyph-name="copyright" horiz-adv-x="987" unicode="©" d="M674 161h-22q-1 20 -19 20q-3 0 -51 -11.5t-82 -11.5q-92 0 -155 48.5t-63 127.5t63 127t154 48q45 0 85 -12t41 -12q13 0 15 20h22v-131h-22q-5 44 -44.5 78.5t-95.5 34.5q-65 0 -85.5 -38.5t-20.5 -114.5q0 -37 3.5 -61.5t14 -47.5t32.5 -34.5t57 -11.5q60 0 104 34 t47 89h22v-141zM157 330q0 -135 98 -229.5t238 -94.5t238.5 94.5t98.5 229.5t-98.5 229.5t-238.5 94.5t-238 -94.5t-98 -229.5zM120 330q0 148 109 252t264 104t264.5 -104t109.5 -252t-109.5 -252t-264.5 -104t-264 104t-109 252z"/>
<glyph glyph-name="ordfeminine" horiz-adv-x="759" unicode="ª" d="M216 366h187l-93 159zM7 209v29h99l256 441h32l255 -441h103v-29h-367v29h93l-59 100h-219l-59 -100h104v-29h-238z"/>
<glyph glyph-name="guillemotleft" horiz-adv-x="834" unicode="«" d="M732 115l-323 220l323 220l19 -15l-145 -205l145 -205zM397 115l-323 220l323 220l19 -15l-145 -205l145 -205z"/>
<glyph glyph-name="logicalnot" horiz-adv-x="615" unicode="¬" d="M101 322v38h414v-185h-38v147h-376z"/>
<glyph glyph-name="uni00AD" horiz-adv-x="863" unicode="­" d="M256 280v76h342v-76h-342z"/>
<glyph glyph-name="registered" horiz-adv-x="987" unicode="®" d="M421 364h49q91 0 91 63q0 33 -22.5 46t-71.5 13h-46v-122zM244 185v24h79v277h-79v23h268q74 0 114.5 -21t40.5 -59q0 -32 -34 -52t-85 -21q65 -2 99.5 -30t34.5 -66v-22q0 -38 28 -38q18 0 39 12l10 -19q-30 -16 -70 -16q-45 0 -77.5 20.5t-32.5 69.5v17q0 32 -22 45 t-65 13h-71v-133h78v-24h-255zM157 330q0 -135 98 -229.5t238 -94.5t238.5 94.5t98.5 229.5t-98.5 229.5t-238.5 94.5t-238 -94.5t-98 -229.5zM120 330q0 148 109 252t264 104t264.5 -104t109.5 -252t-109.5 -252t-264.5 -104t-264 104t-109 252z"/>
<glyph glyph-name="macron" horiz-adv-x="562" unicode="¯" d="M31 760v65h500v-65h-500z"/>
<glyph glyph-name="degree" horiz-adv-x="571" unicode="°" d="M160 505q0 -55 36.5 -95t89.5 -40t89 40t36 95t-36 94.5t-89 39.5t-89.5 -39.5t-36.5 -94.5zM104 505q0 76 53 128.5t129 52.5t128.5 -52.5t52.5 -128.5t-52.5 -129t-128.5 -53t-129 53t-53 129z"/>
<glyph glyph-name="plusminus" horiz-adv-x="615" unicode="±" d="M101 0v38h414v-38h-414zM101 241v38h188v166h38v-166h188v-38h-188v-166h-38v166h-188z"/>
<glyph glyph-name="twosuperior" horiz-adv-x="576" unicode="²" d="M63 320v16l97 70q17 12 48.5 34t44 31t32 25.5t26.5 27.5t13.5 26t6.5 32q0 82 -103 82q-42 0 -72 -15t-30 -31q0 -9 12 -9q44 0 44 -37q0 -19 -15 -29.5t-40 -10.5t-40.5 15t-15.5 39q0 38 48 71.5t133 33.5q98 0 149.5 -29.5t51.5 -75.5q0 -23 -14.5 -43.5t-43 -39 t-57.5 -33.5t-71.5 -36.5t-70.5 -38.5h228v45h29v-120h-390z"/>
<glyph glyph-name="threesuperior" horiz-adv-x="576" unicode="³" d="M192 498v26h42q62 0 88 17t26 57q0 68 -104 68q-44 0 -73 -12t-29 -26q0 -5 9 -7q30 -4 30 -30q0 -18 -14.5 -27.5t-36.5 -9.5q-24 0 -38 12.5t-14 32.5q0 37 48.5 64.5t127.5 27.5q90 0 145.5 -23t55.5 -67q0 -38 -39.5 -61t-98.5 -26h7q63 0 108 -26t45 -70 q0 -47 -64 -77t-168 -30q-82 0 -128.5 24t-46.5 61q0 19 14.5 32.5t40.5 13.5q24 0 38.5 -11t14.5 -29q0 -21 -22 -28q-10 -3 -10 -9q0 -10 31 -19.5t67 -9.5q57 0 83 20t26 68q0 43 -27 58.5t-92 15.5h-42z"/>
<glyph glyph-name="acute" horiz-adv-x="562" unicode="´" d="M99 738l198 125q78 49 110 49q24 0 39.5 -15t15.5 -38q0 -39 -99 -69l-251 -75z"/>
<glyph glyph-name="mu" horiz-adv-x="906" unicode="µ" d="M165 -263v649h-120v30h284v-309q0 -87 91 -87q73 0 115 38.5t42 94.5v233h-108v30h272v-386h120v-30h-284v65q-22 -34 -66 -54t-93 -20q-27 0 -49 7t-30 12.5t-10 8.5v-282h-164z"/>
<glyph glyph-name="paragraph" horiz-adv-x="939" unicode="¶" d="M392 -263v443h-6q-141 0 -218.5 67t-77.5 172q0 106 79 173.5t223 67.5h457v-34h-148v-889h-39v889h-229v-889h-41z"/>
<glyph glyph-name="periodcentered" horiz-adv-x="440" unicode="·" d="M120 330q0 34 27 57t72 23t72.5 -23t27.5 -57q0 -35 -27 -58t-73 -23t-72.5 22.5t-26.5 58.5z"/>
<glyph glyph-name="cedilla" horiz-adv-x="562" unicode="¸" d="M159 -220l16 25q29 -21 74 -21q62 0 62 59q0 62 -58 62q-22 0 -42 -10l-14 16l85 89h48l-63 -68q10 1 21 1q47 0 80.5 -25.5t33.5 -62.5q0 -46 -39 -70.5t-101 -24.5q-65 0 -103 30z"/>
<glyph glyph-name="onesuperior" horiz-adv-x="576" unicode="¹" d="M135 320v27h102v308h-102v27h218v-335h102v-27h-320z"/>
<glyph glyph-name="ordmasculine" horiz-adv-x="823" unicode="º" d="M412 214q47 0 77.5 16.5t45.5 50t20 69t5 87.5q0 41 -3 70.5t-12 60t-24.5 49.5t-43 31t-65.5 12t-65.5 -12t-43 -31t-24.5 -49.5t-12 -60t-3 -70.5q0 -52 5 -87.5t20 -69t45.5 -50t77.5 -16.5zM90 437q0 112 94.5 180.5t227.5 68.5t227 -68.5t94 -180.5t-94 -180.5 t-227 -68.5t-227.5 68.5t-94.5 180.5z"/>
<glyph glyph-name="guillemotright" horiz-adv-x="834" unicode="»" d="M760 335l-323 -220l-19 15l145 205l-145 205l19 15zM425 335l-323 -220l-19 15l145 205l-145 205l19 15z"/>
<glyph glyph-name="onequarter" horiz-adv-x="1158" unicode="¼" d="M613 115h206v191zM574 88v27l264 247h95v-247h89v-27h-89v-61h92v-27h-299v27h93v61h-245zM333 -19l436 698h45l-436 -698h-45zM135 320v27h102v308h-102v27h218v-335h102v-27h-320z"/>
<glyph glyph-name="onehalf" horiz-adv-x="1158" unicode="½" d="M662 0v16l97 70q17 12 48.5 34t44 31t32 25.5t26.5 27.5t13.5 26t6.5 32q0 82 -103 82q-43 0 -72.5 -15t-29.5 -31q0 -9 12 -9q44 0 44 -37q0 -19 -15 -29.5t-40 -10.5t-40.5 15t-15.5 39q0 38 48 71.5t133 33.5q98 0 149.5 -29.5t51.5 -75.5q0 -23 -14.5 -43.5t-43 -39 t-57.5 -33.5t-71.5 -36.5t-70.5 -38.5h228v45h29v-120h-390zM333 -19l436 698h45l-436 -698h-45zM135 320v27h102v308h-102v27h218v-335h102v-27h-320z"/>
<glyph glyph-name="threequarters" horiz-adv-x="1158" unicode="¾" d="M613 115h206v191zM574 88v27l264 247h95v-247h89v-27h-89v-61h92v-27h-299v27h93v61h-245zM325 -19l436 698h45l-436 -698h-45zM192 498v26h42q62 0 88 17t26 57q0 68 -104 68q-44 0 -73 -12t-29 -26q0 -5 9 -7q30 -4 30 -30q0 -18 -14.5 -27.5t-36.5 -9.5 q-24 0 -38 12.5t-14 32.5q0 37 48.5 64.5t127.5 27.5q90 0 145.5 -23t55.5 -67q0 -38 -39.5 -61t-98.5 -26h7q63 0 108 -26t45 -70q0 -47 -64 -77t-168 -30q-82 0 -128.5 24t-46.5 61q0 19 14.5 32.5t40.5 13.5q24 0 38.5 -11t14.5 -29q0 -21 -22 -28q-10 -3 -10 -9 q0 -10 31 -19.5t67 -9.5q57 0 83 20t26 68q0 43 -27 58.5t-92 15.5h-42z"/>
<glyph glyph-name="questiondown" horiz-adv-x="724" unicode="¿" d="M508 596q0 -34 -27 -57t-72 -23t-72.5 23t-27.5 57q0 35 27 58t73 23t72.5 -22.5t26.5 -58.5zM427 460v-168h-27q-19 40 -68 40q-34 0 -55.5 -12.5t-30.5 -38.5t-11 -48t-2 -60q0 -93 35 -131t119 -38q51 0 96.5 16.5t45.5 44.5q0 9 -10 14.5t-22 9.5t-22 18t-10 38 q0 30 24.5 48.5t67.5 18.5q40 0 65 -23t25 -56q0 -68 -83.5 -113.5t-189.5 -45.5q-147 0 -236 47.5t-89 145.5q0 97 73 151t173 54q66 0 96 -26v114h36z"/>
<glyph glyph-name="Agrave" horiz-adv-x="1103" unicode="À" d="M509 863l198 -125l-13 -23l-251 75q-99 30 -99 69q0 23 15.5 38t39.5 15q32 0 110 -49zM311 220h297l-148 252zM20 0v30h140l372 642h34l377 -642h140v-30h-523v30h160l-95 160h-331l-94 -160h160v-30h-340z"/>
<glyph glyph-name="Aacute" horiz-adv-x="1103" unicode="Á" d="M399 738l198 125q78 49 110 49q24 0 39.5 -15t15.5 -38q0 -39 -99 -69l-251 -75zM311 220h297l-148 252zM20 0v30h140l372 642h34l377 -642h140v-30h-523v30h160l-95 160h-331l-94 -160h160v-30h-340z"/>
<glyph glyph-name="Acircumflex" horiz-adv-x="1103" unicode="Â" d="M317 715l-14 22l236 175h24l236 -175l-14 -22l-234 90zM311 220h297l-148 252zM20 0v30h140l372 642h34l377 -642h140v-30h-523v30h160l-95 160h-331l-94 -160h160v-30h-340z"/>
<glyph glyph-name="Atilde" horiz-adv-x="1103" unicode="Ã" d="M324 735h-34q8 130 161 130q50 0 135 -27t117 -27q31 0 52.5 16t22.5 42h34q-4 -67 -42 -98.5t-116 -31.5q-50 0 -139 27.5t-120 27.5q-30 0 -50 -16t-21 -43zM311 220h297l-148 252zM20 0v30h140l372 642h34l377 -642h140v-30h-523v30h160l-95 160h-331l-94 -160h160 v-30h-340z"/>
<glyph glyph-name="Adieresis" horiz-adv-x="1103" unicode="Ä" d="M625 797q0 30 21 51t51 21t51 -21t21 -51t-21 -51t-51 -21t-51 21t-21 51zM333 797q0 30 21 51t51 21t51 -21t21 -51t-21 -51t-51 -21t-51 21t-21 51zM311 220h297l-148 252zM20 0v30h140l372 642h34l377 -642h140v-30h-523v30h160l-95 160h-331l-94 -160h160v-30h-340z "/>
<glyph glyph-name="Aring" horiz-adv-x="1103" unicode="Å" d="M549 672q31 0 52.5 21t21.5 53t-21.5 53.5t-52.5 21.5t-52 -21.5t-21 -53.5t21 -53t52 -21zM311 220h297l-148 252zM20 0v30h140l355 614q-33 10 -54 38t-21 64q0 45 31.5 76.5t77.5 31.5t78 -31.5t32 -76.5q0 -36 -21.5 -64t-55.5 -38l361 -614h140v-30h-523v30h160 l-95 160h-331l-94 -160h160v-30h-340z"/>
<glyph glyph-name="AE" horiz-adv-x="1615" unicode="Æ" d="M475 353h282v277h-44zM197 30h156v-30h-343v30h140l516 600h-169v30h930v-220h-30q0 75 -58 132.5t-171 57.5h-211v-277h60q85 0 127.5 36.5t42.5 89.5h30v-279h-30q0 52 -42.5 87.5t-127.5 35.5h-60v-293h215q77 0 135.5 19t91.5 50.5t49.5 67t16.5 73.5h30v-240h-898 v30h160v293h-308z"/>
<glyph glyph-name="Ccedilla" horiz-adv-x="1071" unicode="Ç" d="M443 -220l16 25q29 -21 74 -21q62 0 62 59q0 62 -58 62q-22 0 -42 -10l-14 16l61 64q-175 9 -293.5 105.5t-118.5 249.5q0 107 61.5 189t161.5 124.5t219 42.5q66 0 122 -12t90 -24.5t44 -12.5q15 0 21 9.5t8 32.5h30v-258h-30q-18 93 -95 164t-189 71q-58 0 -99.5 -18 t-65 -46t-37.5 -72.5t-18 -87.5t-4 -102t4 -102t18 -87.5t38 -72.5t66 -46t100 -18q120 0 206.5 70.5t99.5 183.5h30v-277h-30q-4 42 -37 42q-10 0 -99.5 -23t-154.5 -25l-39 -43q10 1 21 1q47 0 80.5 -25.5t33.5 -62.5q0 -46 -39 -70.5t-101 -24.5q-35 0 -63 10.5t-40 19.5 z"/>
<glyph glyph-name="Egrave" horiz-adv-x="1138" unicode="È" d="M542 863l198 -125l-13 -23l-251 75q-99 30 -99 69q0 23 15.5 38t39.5 15q32 0 110 -49zM100 0v30h160v600h-160v30h850v-220h-30q0 75 -58 132.5t-171 57.5h-231v-277h70q85 0 127.5 36.5t42.5 89.5h30v-279h-30q0 52 -42.5 87.5t-127.5 35.5h-70v-293h235q77 0 135.5 19 t91.5 50.5t49.5 67t16.5 73.5h30v-240h-918z"/>
<glyph glyph-name="Eacute" horiz-adv-x="1138" unicode="É" d="M417 738l198 125q78 49 110 49q24 0 39.5 -15t15.5 -38q0 -39 -99 -69l-251 -75zM100 0v30h160v600h-160v30h850v-220h-30q0 75 -58 132.5t-171 57.5h-231v-277h70q85 0 127.5 36.5t42.5 89.5h30v-279h-30q0 52 -42.5 87.5t-127.5 35.5h-70v-293h235q77 0 135.5 19 t91.5 50.5t49.5 67t16.5 73.5h30v-240h-918z"/>
<glyph glyph-name="Ecircumflex" horiz-adv-x="1138" unicode="Ê" d="M345 715l-14 22l236 175h24l236 -175l-14 -22l-234 90zM100 0v30h160v600h-160v30h850v-220h-30q0 75 -58 132.5t-171 57.5h-231v-277h70q85 0 127.5 36.5t42.5 89.5h30v-279h-30q0 52 -42.5 87.5t-127.5 35.5h-70v-293h235q77 0 135.5 19t91.5 50.5t49.5 67t16.5 73.5 h30v-240h-918z"/>
<glyph glyph-name="Edieresis" horiz-adv-x="1138" unicode="Ë" d="M653 797q0 30 21 51t51 21t51 -21t21 -51t-21 -51t-51 -21t-51 21t-21 51zM361 797q0 30 21 51t51 21t51 -21t21 -51t-21 -51t-51 -21t-51 21t-21 51zM100 0v30h160v600h-160v30h850v-220h-30q0 75 -58 132.5t-171 57.5h-231v-277h70q85 0 127.5 36.5t42.5 89.5h30v-279 h-30q0 52 -42.5 87.5t-127.5 35.5h-70v-293h235q77 0 135.5 19t91.5 50.5t49.5 67t16.5 73.5h30v-240h-918z"/>
<glyph glyph-name="Igrave" horiz-adv-x="720" unicode="Ì" d="M323 863l198 -125l-13 -23l-251 75q-99 30 -99 69q0 23 15.5 38t39.5 15q32 0 110 -49zM100 0v30h160v600h-160v30h520v-30h-160v-600h160v-30h-520z"/>
<glyph glyph-name="Iacute" horiz-adv-x="720" unicode="Í" d="M198 738l198 125q78 49 110 49q24 0 39.5 -15t15.5 -38q0 -39 -99 -69l-251 -75zM100 0v30h160v600h-160v30h520v-30h-160v-600h160v-30h-520z"/>
<glyph glyph-name="Icircumflex" horiz-adv-x="720" unicode="Î" d="M126 715l-14 22l236 175h24l236 -175l-14 -22l-234 90zM100 0v30h160v600h-160v30h520v-30h-160v-600h160v-30h-520z"/>
<glyph glyph-name="Idieresis" horiz-adv-x="720" unicode="Ï" d="M434 797q0 30 21 51t51 21t51 -21t21 -51t-21 -51t-51 -21t-51 21t-21 51zM142 797q0 30 21 51t51 21t51 -21t21 -51t-21 -51t-51 -21t-51 21t-21 51zM100 0v30h160v600h-160v30h520v-30h-160v-600h160v-30h-520z"/>
<glyph glyph-name="Eth" horiz-adv-x="1185" unicode="Ð" d="M460 30h124q136 0 194 68t58 232q0 162 -59.5 231t-192.5 69h-124v-280h190v-38h-190v-282zM100 0v30h160v282h-160v38h160v280h-160v30h503q188 0 320 -93.5t132 -236.5q0 -145 -132.5 -237.5t-319.5 -92.5h-503z"/>
<glyph glyph-name="Ntilde" horiz-adv-x="1203" unicode="Ñ" d="M374 735h-34q8 130 161 130q50 0 135 -27t117 -27q31 0 52.5 16t22.5 42h34q-4 -67 -42 -98.5t-116 -31.5q-50 0 -139 27.5t-120 27.5q-30 0 -50 -16t-21 -43zM100 0v30h160v600h-160v30h361l467 -428v398h-160v30h345v-30h-150v-650h-34l-634 585v-535h160v-30h-355z "/>
<glyph glyph-name="Ograve" d="M528 863l198 -125l-13 -23l-251 75q-99 30 -99 69q0 23 15.5 38t39.5 15q32 0 110 -49zM575 4q58 0 100 18t66 46t38 72.5t18 87.5t4 102t-4 102t-18 87.5t-38 72.5t-66 46t-100 18t-100 -18t-66 -46t-38 -72.5t-18 -87.5t-4 -102t4 -102t18 -87.5t38 -72.5t66 -46 t100 -18zM130 330q0 106 63.5 189t164.5 125t217 42t217 -42t164.5 -125t63.5 -189t-63.5 -189t-164.5 -125t-217 -42t-217 42t-164.5 125t-63.5 189z" unicode="Ò"/>
<glyph glyph-name="Oacute" d="M423 738l198 125q78 49 110 49q24 0 39.5 -15t15.5 -38q0 -39 -99 -69l-251 -75zM575 4q58 0 100 18t66 46t38 72.5t18 87.5t4 102t-4 102t-18 87.5t-38 72.5t-66 46t-100 18t-100 -18t-66 -46t-38 -72.5t-18 -87.5t-4 -102t4 -102t18 -87.5t38 -72.5t66 -46t100 -18z M130 330q0 106 63.5 189t164.5 125t217 42t217 -42t164.5 -125t63.5 -189t-63.5 -189t-164.5 -125t-217 -42t-217 42t-164.5 125t-63.5 189z" unicode="Ó"/>
<glyph glyph-name="Ocircumflex" d="M341 715l-14 22l236 175h24l236 -175l-14 -22l-234 90zM575 4q58 0 100 18t66 46t38 72.5t18 87.5t4 102t-4 102t-18 87.5t-38 72.5t-66 46t-100 18t-100 -18t-66 -46t-38 -72.5t-18 -87.5t-4 -102t4 -102t18 -87.5t38 -72.5t66 -46t100 -18zM130 330q0 106 63.5 189 t164.5 125t217 42t217 -42t164.5 -125t63.5 -189t-63.5 -189t-164.5 -125t-217 -42t-217 42t-164.5 125t-63.5 189z" unicode="Ô"/>
<glyph glyph-name="Otilde" d="M348 735h-34q8 130 161 130q50 0 135 -27t117 -27q31 0 52.5 16t22.5 42h34q-4 -67 -42 -98.5t-116 -31.5q-50 0 -139 27.5t-120 27.5q-30 0 -50 -16t-21 -43zM575 4q58 0 100 18t66 46t38 72.5t18 87.5t4 102t-4 102t-18 87.5t-38 72.5t-66 46t-100 18t-100 -18t-66 -46 t-38 -72.5t-18 -87.5t-4 -102t4 -102t18 -87.5t38 -72.5t66 -46t100 -18zM130 330q0 106 63.5 189t164.5 125t217 42t217 -42t164.5 -125t63.5 -189t-63.5 -189t-164.5 -125t-217 -42t-217 42t-164.5 125t-63.5 189z" unicode="Õ"/>
<glyph glyph-name="Odieresis" d="M649 797q0 30 21 51t51 21t51 -21t21 -51t-21 -51t-51 -21t-51 21t-21 51zM357 797q0 30 21 51t51 21t51 -21t21 -51t-21 -51t-51 -21t-51 21t-21 51zM575 4q58 0 100 18t66 46t38 72.5t18 87.5t4 102t-4 102t-18 87.5t-38 72.5t-66 46t-100 18t-100 -18t-66 -46 t-38 -72.5t-18 -87.5t-4 -102t4 -102t18 -87.5t38 -72.5t66 -46t100 -18zM130 330q0 106 63.5 189t164.5 125t217 42t217 -42t164.5 -125t63.5 -189t-63.5 -189t-164.5 -125t-217 -42t-217 42t-164.5 125t-63.5 189z" unicode="Ö"/>
<glyph glyph-name="multiply" horiz-adv-x="615" unicode="×" d="M174 100l-26 26l133 133l-133 134l27 27l133 -134l134 134l26 -26l-134 -134l134 -133l-27 -27l-134 133z"/>
<glyph glyph-name="Oslash" d="M381 114l367 468q-53 74 -173 74q-58 0 -100 -18t-66 -46t-38 -72.5t-18 -87.5t-4 -102q0 -145 32 -216zM769 546l-368 -468q53 -74 174 -74q58 0 100 18t66 46t38 72.5t18 87.5t4 102q0 145 -32 216zM247 -56l72 92q-87 47 -138 122.5t-51 171.5q0 106 63.5 189 t164.5 125t217 42t220 -45l59 75h48l-72 -92q88 -47 139 -122.5t51 -171.5q0 -106 -63.5 -189t-164.5 -125t-217 -42q-119 0 -221 45l-59 -75h-48z" unicode="Ø"/>
<glyph glyph-name="Ugrave" horiz-adv-x="1157" unicode="Ù" d="M515 863l198 -125l-13 -23l-251 75q-99 30 -99 69q0 23 15.5 38t39.5 15q32 0 110 -49zM215 221v409h-160v30h520v-30h-160v-408q0 -102 59 -154.5t170 -52.5q113 0 187.5 58t74.5 173v384h-160v30h356v-30h-160v-384q0 -129 -88 -195.5t-235 -66.5q-78 0 -147.5 13.5 t-128.5 41t-93.5 74.5t-34.5 108z"/>
<glyph glyph-name="Uacute" horiz-adv-x="1157" unicode="Ú" d="M446 738l198 125q78 49 110 49q24 0 39.5 -15t15.5 -38q0 -39 -99 -69l-251 -75zM215 221v409h-160v30h520v-30h-160v-408q0 -102 59 -154.5t170 -52.5q113 0 187.5 58t74.5 173v384h-160v30h356v-30h-160v-384q0 -129 -88 -195.5t-235 -66.5q-78 0 -147.5 13.5 t-128.5 41t-93.5 74.5t-34.5 108z"/>
<glyph glyph-name="Ucircumflex" horiz-adv-x="1157" unicode="Û" d="M356 715l-14 22l236 175h24l236 -175l-14 -22l-234 90zM215 221v409h-160v30h520v-30h-160v-408q0 -102 59 -154.5t170 -52.5q113 0 187.5 58t74.5 173v384h-160v30h356v-30h-160v-384q0 -129 -88 -195.5t-235 -66.5q-78 0 -147.5 13.5t-128.5 41t-93.5 74.5t-34.5 108z "/>
<glyph glyph-name="Udieresis" horiz-adv-x="1157" unicode="Ü" d="M658 797q0 30 21 51t51 21t51 -21t21 -51t-21 -51t-51 -21t-51 21t-21 51zM366 797q0 30 21 51t51 21t51 -21t21 -51t-21 -51t-51 -21t-51 21t-21 51zM215 221v409h-160v30h520v-30h-160v-408q0 -102 59 -154.5t170 -52.5q113 0 187.5 58t74.5 173v384h-160v30h356v-30 h-160v-384q0 -129 -88 -195.5t-235 -66.5q-78 0 -147.5 13.5t-128.5 41t-93.5 74.5t-34.5 108z"/>
<glyph glyph-name="Yacute" horiz-adv-x="1112" unicode="Ý" d="M454 738l198 125q78 49 110 49q24 0 39.5 -15t15.5 -38q0 -39 -99 -69l-251 -75zM311 0v30h160v222l-311 378h-150v30h550v-30h-150l249 -302l249 302h-150v30h344v-30h-150l-281 -342v-258h160v-30h-520z"/>
<glyph glyph-name="Thorn" horiz-adv-x="1079" unicode="Þ" d="M460 502v-329q28 -7 106 -7q119 0 168.5 36.5t49.5 132.5q0 91 -52 129t-165 38h-107zM100 0v30h160v600h-160v30h530v-30h-170v-98h160q165 0 267 -52t102 -142q0 -65 -60 -112t-150 -68.5t-195 -21.5q-100 0 -124 6v-112h170v-30h-530z"/>
<glyph glyph-name="germandbls" horiz-adv-x="2084" unicode="ß" d="M1203 -14v244h30q13 -88 110.5 -157t251.5 -69q92 0 141.5 28.5t49.5 79.5q0 53 -60 85t-233 72q-166 38 -228.5 84.5t-62.5 122.5q0 91 90.5 150.5t228.5 59.5q75 0 140 -11.5t104.5 -23t51.5 -11.5q23 0 25 39h30v-226h-30q-28 101 -118 152t-214 51q-82 0 -127.5 -28 t-45.5 -72q0 -48 55 -74t205 -60q196 -45 266.5 -94t70.5 -136q0 -90 -93 -154t-252 -64q-77 0 -151.5 13t-121 25.5t-55.5 12.5q-28 0 -28 -39h-30zM161 -14v244h30q13 -88 110.5 -157t251.5 -69q92 0 141.5 28.5t49.5 79.5q0 53 -60 85t-233 72q-166 38 -228.5 84.5 t-62.5 122.5q0 91 90.5 150.5t228.5 59.5q75 0 140 -11.5t104.5 -23t51.5 -11.5q23 0 25 39h30v-226h-30q-28 101 -118 152t-214 51q-82 0 -127.5 -28t-45.5 -72q0 -48 55 -74t205 -60q196 -45 266.5 -94t70.5 -136q0 -90 -93 -154t-252 -64q-77 0 -151.5 13t-121 25.5 t-55.5 12.5q-28 0 -28 -39h-30z"/>
<glyph glyph-name="agrave" horiz-adv-x="1103" unicode="à" d="M311 220h297l-148 252zM20 0v30h140l372 642h34l377 -642h140v-30h-523v30h160l-95 160h-331l-94 -160h160v-30h-340zM484 863l198 -125l-13 -23l-251 75q-99 30 -99 69q0 23 15.5 38t39.5 15q32 0 110 -49z"/>
<glyph glyph-name="aacute" horiz-adv-x="1103" unicode="á" d="M311 220h297l-148 252zM20 0v30h140l372 642h34l377 -642h140v-30h-523v30h160l-95 160h-331l-94 -160h160v-30h-340zM399 738l198 125q78 49 110 49q24 0 39.5 -15t15.5 -38q0 -39 -99 -69l-251 -75z"/>
<glyph glyph-name="acircumflex" horiz-adv-x="1103" unicode="â" d="M311 220h297l-148 252zM20 0v30h140l372 642h34l377 -642h140v-30h-523v30h160l-95 160h-331l-94 -160h160v-30h-340zM317 715l-14 22l236 175h24l236 -175l-14 -22l-234 90z"/>
<glyph glyph-name="atilde" horiz-adv-x="1103" unicode="ã" d="M311 220h297l-148 252zM20 0v30h140l372 642h34l377 -642h140v-30h-523v30h160l-95 160h-331l-94 -160h160v-30h-340zM324 735h-34q8 130 161 130q50 0 135 -27t117 -27q31 0 52.5 16t22.5 42h34q-4 -67 -42 -98.5t-116 -31.5q-50 0 -139 27.5t-120 27.5q-30 0 -50 -16 t-21 -43z"/>
<glyph glyph-name="adieresis" horiz-adv-x="1103" unicode="ä" d="M311 220h297l-148 252zM20 0v30h140l372 642h34l377 -642h140v-30h-523v30h160l-95 160h-331l-94 -160h160v-30h-340zM625 797q0 30 21 51t51 21t51 -21t21 -51t-21 -51t-51 -21t-51 21t-21 51zM333 797q0 30 21 51t51 21t51 -21t21 -51t-21 -51t-51 -21t-51 21t-21 51z "/>
<glyph glyph-name="aring" horiz-adv-x="1103" unicode="å" d="M311 220h297l-148 252zM20 0v30h140l372 642h34l377 -642h140v-30h-523v30h160l-95 160h-331l-94 -160h160v-30h-340zM477 826q0 -32 21 -53t52 -21q32 0 53 21t21 53t-21.5 53.5t-52.5 21.5t-52 -21.5t-21 -53.5zM436 826q0 47 33 79.5t81 32.5q49 0 82 -32.5t33 -79.5 t-33 -79t-82 -32t-81.5 32t-32.5 79z"/>
<glyph glyph-name="ae" horiz-adv-x="1615" unicode="æ" d="M475 353h282v277h-44zM197 30h156v-30h-343v30h140l516 600h-169v30h930v-220h-30q0 75 -58 132.5t-171 57.5h-211v-277h60q85 0 127.5 36.5t42.5 89.5h30v-279h-30q0 52 -42.5 87.5t-127.5 35.5h-60v-293h215q77 0 135.5 19t91.5 50.5t49.5 67t16.5 73.5h30v-240h-898 v30h160v293h-308z"/>
<glyph glyph-name="ccedilla" horiz-adv-x="1071" unicode="ç" d="M443 -220l16 25q29 -21 74 -21q62 0 62 59q0 62 -58 62q-22 0 -42 -10l-14 16l61 64q-175 9 -293.5 105.5t-118.5 249.5q0 107 61.5 189t161.5 124.5t219 42.5q66 0 122 -12t90 -24.5t44 -12.5q15 0 21 9.5t8 32.5h30v-258h-30q-18 93 -95 164t-189 71q-58 0 -99.5 -18 t-65 -46t-37.5 -72.5t-18 -87.5t-4 -102t4 -102t18 -87.5t38 -72.5t66 -46t100 -18q120 0 206.5 70.5t99.5 183.5h30v-277h-30q-4 42 -37 42q-10 0 -99.5 -23t-154.5 -25l-39 -43q10 1 21 1q47 0 80.5 -25.5t33.5 -62.5q0 -46 -39 -70.5t-101 -24.5q-35 0 -63 10.5t-40 19.5 z"/>
<glyph glyph-name="egrave" horiz-adv-x="1138" unicode="è" d="M100 0v30h160v600h-160v30h850v-220h-30q0 75 -58 132.5t-171 57.5h-231v-277h70q85 0 127.5 36.5t42.5 89.5h30v-279h-30q0 52 -42.5 87.5t-127.5 35.5h-70v-293h235q77 0 135.5 19t91.5 50.5t49.5 67t16.5 73.5h30v-240h-918zM552 863l198 -125l-13 -23l-251 75 q-99 30 -99 69q0 23 15.5 38t39.5 15q32 0 110 -49z"/>
<glyph glyph-name="eacute" horiz-adv-x="1138" unicode="é" d="M100 0v30h160v600h-160v30h850v-220h-30q0 75 -58 132.5t-171 57.5h-231v-277h70q85 0 127.5 36.5t42.5 89.5h30v-279h-30q0 52 -42.5 87.5t-127.5 35.5h-70v-293h235q77 0 135.5 19t91.5 50.5t49.5 67t16.5 73.5h30v-240h-918zM417 738l198 125q78 49 110 49 q24 0 39.5 -15t15.5 -38q0 -39 -99 -69l-251 -75z"/>
<glyph glyph-name="ecircumflex" horiz-adv-x="1138" unicode="ê" d="M100 0v30h160v600h-160v30h850v-220h-30q0 75 -58 132.5t-171 57.5h-231v-277h70q85 0 127.5 36.5t42.5 89.5h30v-279h-30q0 52 -42.5 87.5t-127.5 35.5h-70v-293h235q77 0 135.5 19t91.5 50.5t49.5 67t16.5 73.5h30v-240h-918zM365 715l-14 22l236 175h24l236 -175 l-14 -22l-234 90z"/>
<glyph glyph-name="edieresis" horiz-adv-x="1138" unicode="ë" d="M100 0v30h160v600h-160v30h850v-220h-30q0 75 -58 132.5t-171 57.5h-231v-277h70q85 0 127.5 36.5t42.5 89.5h30v-279h-30q0 52 -42.5 87.5t-127.5 35.5h-70v-293h235q77 0 135.5 19t91.5 50.5t49.5 67t16.5 73.5h30v-240h-918zM673 797q0 30 21 51t51 21t51 -21t21 -51 t-21 -51t-51 -21t-51 21t-21 51zM381 797q0 30 21 51t51 21t51 -21t21 -51t-21 -51t-51 -21t-51 21t-21 51z"/>
<glyph glyph-name="igrave" horiz-adv-x="720" unicode="ì" d="M323 863l198 -125l-13 -23l-251 75q-99 30 -99 69q0 23 15.5 38t39.5 15q32 0 110 -49zM100 0v30h160v600h-160v30h520v-30h-160v-600h160v-30h-520z"/>
<glyph glyph-name="iacute" horiz-adv-x="720" unicode="í" d="M198 738l198 125q78 49 110 49q24 0 39.5 -15t15.5 -38q0 -39 -99 -69l-251 -75zM100 0v30h160v600h-160v30h520v-30h-160v-600h160v-30h-520z"/>
<glyph glyph-name="icircumflex" horiz-adv-x="720" unicode="î" d="M126 715l-14 22l236 175h24l236 -175l-14 -22l-234 90zM100 0v30h160v600h-160v30h520v-30h-160v-600h160v-30h-520z"/>
<glyph glyph-name="idieresis" horiz-adv-x="720" unicode="ï" d="M434 797q0 30 21 51t51 21t51 -21t21 -51t-21 -51t-51 -21t-51 21t-21 51zM142 797q0 30 21 51t51 21t51 -21t21 -51t-21 -51t-51 -21t-51 21t-21 51zM100 0v30h160v600h-160v30h520v-30h-160v-600h160v-30h-520z"/>
<glyph glyph-name="eth" horiz-adv-x="1185" unicode="ð" d="M460 30h124q136 0 194 68t58 232q0 162 -59.5 231t-192.5 69h-124v-280h190v-38h-190v-282zM100 0v30h160v282h-160v38h160v280h-160v30h503q188 0 320 -93.5t132 -236.5q0 -145 -132.5 -237.5t-319.5 -92.5h-503z"/>
<glyph glyph-name="ntilde" horiz-adv-x="1203" unicode="ñ" d="M393 735h-34q8 130 161 130q50 0 135 -27t117 -27q31 0 52.5 16t22.5 42h34q-4 -67 -42 -98.5t-116 -31.5q-50 0 -139 27.5t-120 27.5q-30 0 -50 -16t-21 -43zM100 0v30h160v600h-160v30h361l467 -428v398h-160v30h345v-30h-150v-650h-34l-634 585v-535h160v-30h-355z "/>
<glyph glyph-name="ograve" d="M575 4q58 0 100 18t66 46t38 72.5t18 87.5t4 102t-4 102t-18 87.5t-38 72.5t-66 46t-100 18t-100 -18t-66 -46t-38 -72.5t-18 -87.5t-4 -102t4 -102t18 -87.5t38 -72.5t66 -46t100 -18zM130 330q0 106 63.5 189t164.5 125t217 42t217 -42t164.5 -125t63.5 -189 t-63.5 -189t-164.5 -125t-217 -42t-217 42t-164.5 125t-63.5 189zM538 863l198 -125l-13 -23l-251 75q-99 30 -99 69q0 23 15.5 38t39.5 15q32 0 110 -49z" unicode="ò"/>
<glyph glyph-name="oacute" d="M575 4q58 0 100 18t66 46t38 72.5t18 87.5t4 102t-4 102t-18 87.5t-38 72.5t-66 46t-100 18t-100 -18t-66 -46t-38 -72.5t-18 -87.5t-4 -102t4 -102t18 -87.5t38 -72.5t66 -46t100 -18zM130 330q0 106 63.5 189t164.5 125t217 42t217 -42t164.5 -125t63.5 -189 t-63.5 -189t-164.5 -125t-217 -42t-217 42t-164.5 125t-63.5 189zM415 738l198 125q78 49 110 49q24 0 39.5 -15t15.5 -38q0 -39 -99 -69l-251 -75z" unicode="ó"/>
<glyph glyph-name="ocircumflex" d="M575 4q58 0 100 18t66 46t38 72.5t18 87.5t4 102t-4 102t-18 87.5t-38 72.5t-66 46t-100 18t-100 -18t-66 -46t-38 -72.5t-18 -87.5t-4 -102t4 -102t18 -87.5t38 -72.5t66 -46t100 -18zM130 330q0 106 63.5 189t164.5 125t217 42t217 -42t164.5 -125t63.5 -189 t-63.5 -189t-164.5 -125t-217 -42t-217 42t-164.5 125t-63.5 189zM341 715l-14 22l236 175h24l236 -175l-14 -22l-234 90z" unicode="ô"/>
<glyph glyph-name="otilde" d="M575 4q58 0 100 18t66 46t38 72.5t18 87.5t4 102t-4 102t-18 87.5t-38 72.5t-66 46t-100 18t-100 -18t-66 -46t-38 -72.5t-18 -87.5t-4 -102t4 -102t18 -87.5t38 -72.5t66 -46t100 -18zM130 330q0 106 63.5 189t164.5 125t217 42t217 -42t164.5 -125t63.5 -189 t-63.5 -189t-164.5 -125t-217 -42t-217 42t-164.5 125t-63.5 189zM348 735h-34q8 130 161 130q50 0 135 -27t117 -27q31 0 52.5 16t22.5 42h34q-4 -67 -42 -98.5t-116 -31.5q-50 0 -139 27.5t-120 27.5q-30 0 -50 -16t-21 -43z" unicode="õ"/>
<glyph glyph-name="odieresis" d="M575 4q58 0 100 18t66 46t38 72.5t18 87.5t4 102t-4 102t-18 87.5t-38 72.5t-66 46t-100 18t-100 -18t-66 -46t-38 -72.5t-18 -87.5t-4 -102t4 -102t18 -87.5t38 -72.5t66 -46t100 -18zM130 330q0 106 63.5 189t164.5 125t217 42t217 -42t164.5 -125t63.5 -189 t-63.5 -189t-164.5 -125t-217 -42t-217 42t-164.5 125t-63.5 189zM649 797q0 30 21 51t51 21t51 -21t21 -51t-21 -51t-51 -21t-51 21t-21 51zM357 797q0 30 21 51t51 21t51 -21t21 -51t-21 -51t-51 -21t-51 21t-21 51z" unicode="ö"/>
<glyph glyph-name="divide" horiz-adv-x="615" unicode="÷" d="M267 136q0 17 12 29t30 12q17 0 29 -12t12 -29q0 -18 -12 -30t-29 -12q-18 0 -30 12t-12 30zM267 385q0 17 12 29t30 12q17 0 29 -12t12 -29q0 -18 -12 -30t-29 -12q-18 0 -30 12t-12 30zM101 241v38h414v-38h-414z"/>
<glyph glyph-name="oslash" d="M381 114l367 468q-53 74 -173 74q-58 0 -100 -18t-66 -46t-38 -72.5t-18 -87.5t-4 -102q0 -145 32 -216zM769 546l-368 -468q53 -74 174 -74q58 0 100 18t66 46t38 72.5t18 87.5t4 102q0 145 -32 216zM247 -56l72 92q-87 47 -138 122.5t-51 171.5q0 106 63.5 189 t164.5 125t217 42t220 -45l59 75h48l-72 -92q88 -47 139 -122.5t51 -171.5q0 -106 -63.5 -189t-164.5 -125t-217 -42q-119 0 -221 45l-59 -75h-48z" unicode="ø"/>
<glyph glyph-name="ugrave" horiz-adv-x="1157" unicode="ù" d="M215 221v409h-160v30h520v-30h-160v-408q0 -102 59 -154.5t170 -52.5q113 0 187.5 58t74.5 173v384h-160v30h356v-30h-160v-384q0 -129 -88 -195.5t-235 -66.5q-78 0 -147.5 13.5t-128.5 41t-93.5 74.5t-34.5 108zM550 863l198 -125l-13 -23l-251 75q-99 30 -99 69 q0 23 15.5 38t39.5 15q32 0 110 -49z"/>
<glyph glyph-name="uacute" horiz-adv-x="1157" unicode="ú" d="M215 221v409h-160v30h520v-30h-160v-408q0 -102 59 -154.5t170 -52.5q113 0 187.5 58t74.5 173v384h-160v30h356v-30h-160v-384q0 -129 -88 -195.5t-235 -66.5q-78 0 -147.5 13.5t-128.5 41t-93.5 74.5t-34.5 108zM476 738l198 125q78 49 110 49q24 0 39.5 -15t15.5 -38 q0 -39 -99 -69l-251 -75z"/>
<glyph glyph-name="ucircumflex" horiz-adv-x="1157" unicode="û" d="M356 715l-14 22l236 175h24l236 -175l-14 -22l-234 90zM215 221v409h-160v30h520v-30h-160v-408q0 -102 59 -154.5t170 -52.5q113 0 187.5 58t74.5 173v384h-160v30h356v-30h-160v-384q0 -129 -88 -195.5t-235 -66.5q-78 0 -147.5 13.5t-128.5 41t-93.5 74.5t-34.5 108z "/>
<glyph glyph-name="udieresis" horiz-adv-x="1157" unicode="ü" d="M658 797q0 30 21 51t51 21t51 -21t21 -51t-21 -51t-51 -21t-51 21t-21 51zM366 797q0 30 21 51t51 21t51 -21t21 -51t-21 -51t-51 -21t-51 21t-21 51zM215 221v409h-160v30h520v-30h-160v-408q0 -102 59 -154.5t170 -52.5q113 0 187.5 58t74.5 173v384h-160v30h356v-30 h-160v-384q0 -129 -88 -195.5t-235 -66.5q-78 0 -147.5 13.5t-128.5 41t-93.5 74.5t-34.5 108z"/>
<glyph glyph-name="yacute" horiz-adv-x="1112" unicode="ý" d="M311 0v30h160v222l-311 378h-150v30h550v-30h-150l249 -302l249 302h-150v30h344v-30h-150l-281 -342v-258h160v-30h-520zM454 738l198 125q78 49 110 49q24 0 39.5 -15t15.5 -38q0 -39 -99 -69l-251 -75z"/>
<glyph glyph-name="thorn" horiz-adv-x="1079" unicode="þ" d="M460 502v-329q28 -7 106 -7q119 0 168.5 36.5t49.5 132.5q0 91 -52 129t-165 38h-107zM100 0v30h160v600h-160v30h530v-30h-170v-98h160q165 0 267 -52t102 -142q0 -65 -60 -112t-150 -68.5t-195 -21.5q-100 0 -124 6v-112h170v-30h-530z"/>
<glyph glyph-name="OE" horiz-adv-x="1634" unicode="Œ" d="M956 30h235q77 0 135.5 19t91.5 50.5t49.5 67t16.5 73.5h30v-240h-758q-86 -21 -181 -21q-117 0 -217 41t-164 122.5t-64 187.5t64 187.5t164 122.5t217 41q95 0 181 -21h690v-220h-30q0 75 -58 132.5t-171 57.5h-231v-277h70q85 0 127.5 36.5t42.5 89.5h30v-279h-30 q0 52 -42.5 87.5t-127.5 35.5h-70v-293zM756 36v588q-19 8 -69.5 17.5t-111.5 9.5q-58 0 -100 -17.5t-66 -44.5t-38 -71t-18 -86.5t-4 -101.5t4 -101.5t18 -86.5t38 -71t66 -44.5t100 -17.5q61 0 111.5 9.5t69.5 17.5z"/>
<glyph glyph-name="oe" horiz-adv-x="1634" unicode="œ" d="M956 30h235q77 0 135.5 19t91.5 50.5t49.5 67t16.5 73.5h30v-240h-758q-86 -21 -181 -21q-117 0 -217 41t-164 122.5t-64 187.5t64 187.5t164 122.5t217 41q95 0 181 -21h690v-220h-30q0 75 -58 132.5t-171 57.5h-231v-277h70q85 0 127.5 36.5t42.5 89.5h30v-279h-30 q0 52 -42.5 87.5t-127.5 35.5h-70v-293zM756 36v588q-19 8 -69.5 17.5t-111.5 9.5q-58 0 -100 -17.5t-66 -44.5t-38 -71t-18 -86.5t-4 -101.5t4 -101.5t18 -86.5t38 -71t66 -44.5t100 -17.5q61 0 111.5 9.5t69.5 17.5z"/>
<glyph glyph-name="Scaron" horiz-adv-x="1042" unicode="Š" d="M273 890l14 22l234 -90l234 90l14 -22l-236 -175h-24zM161 -14v244h30q13 -88 110.5 -157t251.5 -69q92 0 141.5 28.5t49.5 79.5q0 53 -60 85t-233 72q-166 38 -228.5 84.5t-62.5 122.5q0 91 90.5 150.5t228.5 59.5q75 0 140 -11.5t104.5 -23t51.5 -11.5q23 0 25 39h30 v-226h-30q-28 101 -118 152t-214 51q-82 0 -127.5 -28t-45.5 -72q0 -48 55 -74t205 -60q196 -45 266.5 -94t70.5 -136q0 -90 -93 -154t-252 -64q-77 0 -151.5 13t-121 25.5t-55.5 12.5q-28 0 -28 -39h-30z"/>
<glyph glyph-name="scaron" horiz-adv-x="1042" unicode="š" d="M161 -14v244h30q13 -88 110.5 -157t251.5 -69q92 0 141.5 28.5t49.5 79.5q0 53 -60 85t-233 72q-166 38 -228.5 84.5t-62.5 122.5q0 91 90.5 150.5t228.5 59.5q75 0 140 -11.5t104.5 -23t51.5 -11.5q23 0 25 39h30v-226h-30q-28 101 -118 152t-214 51q-82 0 -127.5 -28 t-45.5 -72q0 -48 55 -74t205 -60q196 -45 266.5 -94t70.5 -136q0 -90 -93 -154t-252 -64q-77 0 -151.5 13t-121 25.5t-55.5 12.5q-28 0 -28 -39h-30zM273 890l14 22l234 -90l234 90l14 -22l-236 -175h-24z"/>
<glyph glyph-name="Ydieresis" horiz-adv-x="1112" unicode="Ÿ" d="M674 797q0 30 21 51t51 21t51 -21t21 -51t-21 -51t-51 -21t-51 21t-21 51zM382 797q0 30 21 51t51 21t51 -21t21 -51t-21 -51t-51 -21t-51 21t-21 51zM311 0v30h160v222l-311 378h-150v30h550v-30h-150l249 -302l249 302h-150v30h344v-30h-150l-281 -342v-258h160v-30 h-520z"/>
<glyph glyph-name="circumflex" horiz-adv-x="562" unicode="ˆ" d="M47 715l-14 22l236 175h24l236 -175l-14 -22l-234 90z"/>
<glyph glyph-name="tilde" horiz-adv-x="562" unicode="˜" d="M54 735h-34q8 130 161 130q50 0 135 -27t117 -27q31 0 52.5 16t22.5 42h34q-4 -67 -42 -98.5t-116 -31.5q-50 0 -139 27.5t-120 27.5q-30 0 -50 -16t-21 -43z"/>
<glyph glyph-name="Alpha" horiz-adv-x="1103" unicode="Α" d="M311 220h297l-148 252zM20 0v30h140l372 642h34l377 -642h140v-30h-523v30h160l-95 160h-331l-94 -160h160v-30h-340z"/>
<glyph glyph-name="Beta" horiz-adv-x="1115" unicode="Β" d="M460 367h138q162 0 162 133q0 34 -10 58t-26 37.5t-42.5 21.5t-53 10.5t-63.5 2.5h-105v-263zM460 30h138q47 0 81.5 6t64.5 22t45.5 47.5t15.5 78.5q0 153 -213 153h-132v-307zM100 0v30h160v600h-160v30h533q135 0 221 -40.5t86 -116.5q0 -63 -68.5 -104.5 t-169.5 -43.5q125 -2 211.5 -48.5t86.5 -124.5t-81.5 -130t-237.5 -52h-581z"/>
<glyph glyph-name="Gamma" horiz-adv-x="1007" unicode="Γ" d="M907 660v-242h-30q-2 35 -17.5 70.5t-42 68t-70 53t-96.5 20.5h-191v-600h170v-30h-530v30h160v600h-160v30h807z"/>
<glyph glyph-name="uni0394" horiz-adv-x="1025" unicode="Δ" d="M135 30h571l-285 451zM91 30l408 642h29l405 -642v-30h-842v30z"/>
<glyph glyph-name="Epsilon" horiz-adv-x="1138" unicode="Ε" d="M100 0v30h160v600h-160v30h850v-220h-30q0 75 -58 132.5t-171 57.5h-231v-277h70q85 0 127.5 36.5t42.5 89.5h30v-279h-30q0 52 -42.5 87.5t-127.5 35.5h-70v-293h235q77 0 135.5 19t91.5 50.5t49.5 67t16.5 73.5h30v-240h-918z"/>
<glyph glyph-name="Zeta" horiz-adv-x="1008" unicode="Ζ" d="M110 0v30l536 600h-199q-141 0 -211.5 -56t-70.5 -144h-30v230h741v-30l-533 -600h212q156 0 232 55t76 145h30v-230h-783z"/>
<glyph glyph-name="Eta" horiz-adv-x="1300" unicode="Η" d="M100 0v30h160v600h-160v30h485v-30h-125v-275h380v275h-125v30h485v-30h-160v-600h160v-30h-485v30h125v295h-380v-295h125v-30h-485z"/>
<glyph glyph-name="Theta" d="M462 277v-49h-29v215h29v-49h226v49h29v-215h-29v49h-226zM575 4q58 0 100 18t66 46t38 72.5t18 87.5t4 102t-4 102t-18 87.5t-38 72.5t-66 46t-100 18t-100 -18t-66 -46t-38 -72.5t-18 -87.5t-4 -102t4 -102t18 -87.5t38 -72.5t66 -46t100 -18zM130 330q0 106 63.5 189 t164.5 125t217 42t217 -42t164.5 -125t63.5 -189t-63.5 -189t-164.5 -125t-217 -42t-217 42t-164.5 125t-63.5 189z" unicode="Θ"/>
<glyph glyph-name="Iota" horiz-adv-x="720" unicode="Ι" d="M100 0v30h160v600h-160v30h520v-30h-160v-600h160v-30h-520z"/>
<glyph glyph-name="Kappa" horiz-adv-x="1217" unicode="Κ" d="M100 0v30h160v600h-160v30h510v-30h-150v-288l413 288h-140v30h357v-30h-160l-230 -168l367 -432h140v-30h-517v30h115l-266 326l-79 -58v-268h135v-30h-495z"/>
<glyph glyph-name="Lambda" horiz-adv-x="1083" unicode="Λ" d="M556 672l367 -642h140v-30h-522v30h160l-250 443l-250 -443h160v-30h-341v30h140l361 642h35z"/>
<glyph glyph-name="Mu" horiz-adv-x="1407" unicode="Μ" d="M100 0v30h160v600h-160v30h376l233 -442l231 442h367v-30h-160v-600h160v-30h-510v30h150v556l-308 -586h-36l-308 586v-556h160v-30h-355z"/>
<glyph glyph-name="Nu" horiz-adv-x="1203" unicode="Ν" d="M100 0v30h160v600h-160v30h361l467 -428v398h-160v30h345v-30h-150v-650h-34l-634 585v-535h160v-30h-355z"/>
<glyph glyph-name="Xi" horiz-adv-x="1087" unicode="Ξ" d="M215 135h657q35 0 45 23.5t10 98.5h30v-257h-827v257h30q0 -75 10 -98.5t45 -23.5zM846 525h-605q-34 0 -42.5 -22t-8.5 -95h-30v252h767v-252h-30q0 73 -8.5 95t-42.5 22zM718 274h-349v-51h-29v225h29v-51h349v51h29v-225h-29v51z"/>
<glyph glyph-name="Omicron" d="M575 4q58 0 100 18t66 46t38 72.5t18 87.5t4 102t-4 102t-18 87.5t-38 72.5t-66 46t-100 18t-100 -18t-66 -46t-38 -72.5t-18 -87.5t-4 -102t4 -102t18 -87.5t38 -72.5t66 -46t100 -18zM130 330q0 106 63.5 189t164.5 125t217 42t217 -42t164.5 -125t63.5 -189 t-63.5 -189t-164.5 -125t-217 -42t-217 42t-164.5 125t-63.5 189z" unicode="Ο"/>
<glyph glyph-name="Pi" horiz-adv-x="1298" unicode="Π" d="M838 30v600h-378v-600h125v-30h-485v30h160v600h-160v30h1098v-30h-160v-600h160v-30h-485v30h125z"/>
<glyph glyph-name="Rho" horiz-adv-x="1069" unicode="Ρ" d="M460 630v-329q50 -7 106 -7q119 0 168.5 36.5t49.5 132.5q0 91 -52 129t-165 38h-107zM100 0v30h160v600h-160v30h520q165 0 267 -52t102 -142q0 -65 -60 -112t-150 -68.5t-195 -21.5l-124 5v-239h160v-30h-520z"/>
<glyph glyph-name="Sigma" horiz-adv-x="1000" unicode="Σ" d="M838 660v-220h-30q0 75 -58 132.5t-171 57.5h-229l256 -262l-308 -227h482q47 0 58.5 22.5t11.5 96.5h30v-260h-780v41l345 256l-332 333v30h725z"/>
<glyph glyph-name="Tau" horiz-adv-x="1066" unicode="Τ" d="M273 0v30h160v600h-78q-53 0 -96.5 -20.5t-70 -53t-42 -68t-17.5 -70.5h-30l1 242h866l1 -242h-30q-2 35 -17.5 70.5t-42 68t-70 53t-96.5 20.5h-78v-600h160v-30h-520z"/>
<glyph glyph-name="Upsilon" horiz-adv-x="1112" unicode="Υ" d="M311 0v30h160v222l-311 378h-150v30h550v-30h-150l249 -302l249 302h-150v30h344v-30h-150l-281 -342v-258h160v-30h-520z"/>
<glyph glyph-name="Phi" horiz-adv-x="1324" unicode="Φ" d="M1029 344q0 113 -60.5 156t-206.5 45v-403q146 2 206.5 45.5t60.5 156.5zM295 344q0 -113 61 -157t206 -45v403q-146 -2 -206.5 -45t-60.5 -156zM771 112h-9v-82h160v-30h-520v30h160v82h-9q-125 0 -227 24t-169 77.5t-67 130.5t67 130.5t168.5 77t227.5 23.5h9v71h-160 v30h520v-30h-160v-71h9q126 0 227.5 -23.5t168.5 -77t67 -130.5t-67 -130.5t-169 -77.5t-227 -24z"/>
<glyph glyph-name="Chi" horiz-adv-x="1093" unicode="Χ" d="M55 0v30h140l263 281l-283 319h-140v30h519v-30h-140l184 -208l195 208h-140v30h326v-30h-140l-219 -233l328 -367h140v-30h-540v30h160l-228 256l-240 -256h160v-30h-345z"/>
<glyph glyph-name="Psi" horiz-adv-x="1360" unicode="Ψ" d="M788 208h-8v-178h170v-30h-540v30h170v178h-8q-63 0 -122.5 8.5t-123.5 29.5t-103 66t-39 109v151q0 34 -13 48.5t-44 14.5q-28 0 -58 -13l-9 28q51 15 101 15q103 0 159 -39.5t56 -134.5v-116q0 -70 57 -104t147 -34v393h-153v30h506v-30h-153v-393q90 0 147 34t57 104 v116q0 95 56 134.5t159 39.5q50 0 101 -15l-9 -28q-30 13 -58 13q-31 0 -44 -14.5t-13 -48.5v-151q0 -64 -39 -109t-103 -66t-123.5 -29.5t-122.5 -8.5z"/>
<glyph glyph-name="alpha" horiz-adv-x="1103" unicode="α" d="M311 220h297l-148 252zM20 0v30h140l372 642h34l377 -642h140v-30h-523v30h160l-95 160h-331l-94 -160h160v-30h-340z"/>
<glyph glyph-name="beta" horiz-adv-x="1115" unicode="β" d="M460 367h138q162 0 162 133q0 34 -10 58t-26 37.5t-42.5 21.5t-53 10.5t-63.5 2.5h-105v-263zM460 30h138q47 0 81.5 6t64.5 22t45.5 47.5t15.5 78.5q0 153 -213 153h-132v-307zM100 0v30h160v600h-160v30h533q135 0 221 -40.5t86 -116.5q0 -63 -68.5 -104.5 t-169.5 -43.5q125 -2 211.5 -48.5t86.5 -124.5t-81.5 -130t-237.5 -52h-581z"/>
<glyph glyph-name="gamma" horiz-adv-x="1007" unicode="γ" d="M907 660v-242h-30q-2 35 -17.5 70.5t-42 68t-70 53t-96.5 20.5h-191v-600h170v-30h-530v30h160v600h-160v30h807z"/>
<glyph glyph-name="delta" horiz-adv-x="1025" unicode="δ" d="M135 30h571l-285 451zM91 30l408 642h29l405 -642v-30h-842v30z"/>
<glyph glyph-name="epsilon" horiz-adv-x="1138" unicode="ε" d="M100 0v30h160v600h-160v30h850v-220h-30q0 75 -58 132.5t-171 57.5h-231v-277h70q85 0 127.5 36.5t42.5 89.5h30v-279h-30q0 52 -42.5 87.5t-127.5 35.5h-70v-293h235q77 0 135.5 19t91.5 50.5t49.5 67t16.5 73.5h30v-240h-918z"/>
<glyph glyph-name="zeta" horiz-adv-x="1008" unicode="ζ" d="M110 0v30l536 600h-199q-141 0 -211.5 -56t-70.5 -144h-30v230h741v-30l-533 -600h212q156 0 232 55t76 145h30v-230h-783z"/>
<glyph glyph-name="eta" horiz-adv-x="1300" unicode="η" d="M100 0v30h160v600h-160v30h485v-30h-125v-275h380v275h-125v30h485v-30h-160v-600h160v-30h-485v30h125v295h-380v-295h125v-30h-485z"/>
<glyph glyph-name="theta" d="M462 277v-49h-29v215h29v-49h226v49h29v-215h-29v49h-226zM575 4q58 0 100 18t66 46t38 72.5t18 87.5t4 102t-4 102t-18 87.5t-38 72.5t-66 46t-100 18t-100 -18t-66 -46t-38 -72.5t-18 -87.5t-4 -102t4 -102t18 -87.5t38 -72.5t66 -46t100 -18zM130 330q0 106 63.5 189 t164.5 125t217 42t217 -42t164.5 -125t63.5 -189t-63.5 -189t-164.5 -125t-217 -42t-217 42t-164.5 125t-63.5 189z" unicode="θ"/>
<glyph glyph-name="iota" horiz-adv-x="720" unicode="ι" d="M100 0v30h160v600h-160v30h520v-30h-160v-600h160v-30h-520z"/>
<glyph glyph-name="kappa" horiz-adv-x="1217" unicode="κ" d="M100 0v30h160v600h-160v30h510v-30h-150v-288l413 288h-140v30h357v-30h-160l-230 -168l367 -432h140v-30h-517v30h115l-266 326l-79 -58v-268h135v-30h-495z"/>
<glyph glyph-name="lambda" horiz-adv-x="1083" unicode="λ" d="M556 672l367 -642h140v-30h-522v30h160l-250 443l-250 -443h160v-30h-341v30h140l361 642h35z"/>
<glyph glyph-name="uni03BC" horiz-adv-x="1407" unicode="μ" d="M100 0v30h160v600h-160v30h376l233 -442l231 442h367v-30h-160v-600h160v-30h-510v30h150v556l-308 -586h-36l-308 586v-556h160v-30h-355z"/>
<glyph glyph-name="nu" horiz-adv-x="1203" unicode="ν" d="M100 0v30h160v600h-160v30h361l467 -428v398h-160v30h345v-30h-150v-650h-34l-634 585v-535h160v-30h-355z"/>
<glyph glyph-name="xi" horiz-adv-x="1069" unicode="ξ" d="M206 135h657q35 0 45 23.5t10 98.5h30v-257h-827v257h30q0 -75 10 -98.5t45 -23.5zM837 525h-605q-34 0 -42.5 -22t-8.5 -95h-30v252h767v-252h-30q0 73 -8.5 95t-42.5 22zM709 274h-349v-51h-29v225h29v-51h349v51h29v-225h-29v51z"/>
<glyph glyph-name="omicron" d="M575 4q58 0 100 18t66 46t38 72.5t18 87.5t4 102t-4 102t-18 87.5t-38 72.5t-66 46t-100 18t-100 -18t-66 -46t-38 -72.5t-18 -87.5t-4 -102t4 -102t18 -87.5t38 -72.5t66 -46t100 -18zM130 330q0 106 63.5 189t164.5 125t217 42t217 -42t164.5 -125t63.5 -189 t-63.5 -189t-164.5 -125t-217 -42t-217 42t-164.5 125t-63.5 189z" unicode="ο"/>
<glyph glyph-name="pi" horiz-adv-x="1298" unicode="π" d="M838 30v600h-378v-600h125v-30h-485v30h160v600h-160v30h1098v-30h-160v-600h160v-30h-485v30h125z"/>
<glyph glyph-name="rho" horiz-adv-x="1069" unicode="ρ" d="M460 630v-329q50 -7 106 -7q119 0 168.5 36.5t49.5 132.5q0 91 -52 129t-165 38h-107zM100 0v30h160v600h-160v30h520q165 0 267 -52t102 -142q0 -65 -60 -112t-150 -68.5t-195 -21.5l-124 5v-239h160v-30h-520z"/>
<glyph glyph-name="sigma1" horiz-adv-x="1003" unicode="ς" d="M841 660v-220h-30q0 75 -58 132.5t-171 57.5h-229l256 -262l-308 -227h482q47 0 58.5 22.5t11.5 96.5h30v-260h-780v41l345 256l-332 333v30h725z"/>
<glyph glyph-name="sigma" horiz-adv-x="1003" unicode="σ" d="M841 660v-220h-30q0 75 -58 132.5t-171 57.5h-229l256 -262l-308 -227h482q47 0 58.5 22.5t11.5 96.5h30v-260h-780v41l345 256l-332 333v30h725z"/>
<glyph glyph-name="tau" horiz-adv-x="1066" unicode="τ" d="M273 0v30h160v600h-78q-53 0 -96.5 -20.5t-70 -53t-42 -68t-17.5 -70.5h-30l1 242h866l1 -242h-30q-2 35 -17.5 70.5t-42 68t-70 53t-96.5 20.5h-78v-600h160v-30h-520z"/>
<glyph glyph-name="upsilon" horiz-adv-x="1112" unicode="υ" d="M311 0v30h160v222l-311 378h-150v30h550v-30h-150l249 -302l249 302h-150v30h344v-30h-150l-281 -342v-258h160v-30h-520z"/>
<glyph glyph-name="phi" horiz-adv-x="1324" unicode="φ" d="M1029 344q0 113 -60.5 156t-206.5 45v-403q146 2 206.5 45.5t60.5 156.5zM295 344q0 -113 61 -157t206 -45v403q-146 -2 -206.5 -45t-60.5 -156zM771 112h-9v-82h160v-30h-520v30h160v82h-9q-125 0 -227 24t-169 77.5t-67 130.5t67 130.5t168.5 77t227.5 23.5h9v71h-160 v30h520v-30h-160v-71h9q126 0 227.5 -23.5t168.5 -77t67 -130.5t-67 -130.5t-169 -77.5t-227 -24z"/>
<glyph glyph-name="chi" horiz-adv-x="1093" unicode="χ" d="M55 0v30h140l263 281l-283 319h-140v30h519v-30h-140l184 -208l195 208h-140v30h326v-30h-140l-219 -233l328 -367h140v-30h-540v30h160l-228 256l-240 -256h160v-30h-345z"/>
<glyph glyph-name="psi" horiz-adv-x="1360" unicode="ψ" d="M788 208h-8v-178h170v-30h-540v30h170v178h-8q-63 0 -122.5 8.5t-123.5 29.5t-103 66t-39 109v151q0 34 -13 48.5t-44 14.5q-28 0 -58 -13l-9 28q51 15 101 15q103 0 159 -39.5t56 -134.5v-116q0 -70 57 -104t147 -34v393h-153v30h506v-30h-153v-393q90 0 147 34t57 104 v116q0 95 56 134.5t159 39.5q50 0 101 -15l-9 -28q-30 13 -58 13q-31 0 -44 -14.5t-13 -48.5v-151q0 -64 -39 -109t-103 -66t-123.5 -29.5t-122.5 -8.5z"/>
<glyph glyph-name="endash" horiz-adv-x="740" unicode="–" d="M120 299v38h500v-38h-500z"/>
<glyph glyph-name="emdash" horiz-adv-x="1240" unicode="—" d="M120 299v38h1000v-38h-1000z"/>
<glyph glyph-name="quoteleft" horiz-adv-x="440" unicode="‘" d="M303 704l9 -29q-62 -22 -94 -51t-34 -81q23 9 50 9q39 0 62 -20.5t23 -56.5q0 -37 -26 -58t-67 -21q-46 0 -75 29t-29 83q0 73 48 122.5t133 73.5z"/>
<glyph glyph-name="quotesinglbase" horiz-adv-x="440" unicode="‚" d="M137 -169l-9 29q62 22 94 51t34 81q-23 -9 -50 -9q-39 0 -62 20.5t-23 56.5q0 37 26 58t67 21q46 0 75 -29.5t29 -82.5q0 -73 -48 -122.5t-133 -73.5z"/>
<glyph glyph-name="quotedblleft" horiz-adv-x="710" unicode="“" d="M573 704l9 -29q-62 -22 -94 -51t-34 -81q23 9 50 9q39 0 62 -20.5t23 -56.5q0 -37 -26 -58t-67 -21q-46 0 -75 29t-29 83q0 73 48 122.5t133 73.5zM303 704l9 -29q-62 -22 -94 -51t-34 -81q23 9 50 9q39 0 62 -20.5t23 -56.5q0 -37 -26 -58t-67 -21q-46 0 -75 29t-29 83 q0 73 48 122.5t133 73.5z"/>
<glyph glyph-name="quotedblright" horiz-adv-x="710" unicode="”" d="M407 396l-9 29q62 22 94 51t34 81q-23 -9 -50 -9q-39 0 -62 20.5t-23 56.5q0 37 26 58t67 21q46 0 75 -29t29 -83q0 -73 -48 -122.5t-133 -73.5zM137 396l-9 29q62 22 94 51t34 81q-23 -9 -50 -9q-39 0 -62 20.5t-23 56.5q0 37 26 58t67 21q46 0 75 -29t29 -83 q0 -73 -48 -122.5t-133 -73.5z"/>
<glyph glyph-name="dagger" horiz-adv-x="880" unicode="†" d="M458 -263h-36q-2 149 -25 284t-56 202q27 30 54.5 83t27.5 85q-47 -3 -84.5 -19.5t-66 -30.5t-57.5 -14q-28 0 -50 22t-22 59q0 36 22.5 58t49.5 22q32 0 90 -31.5t118 -35.5q-3 48 -20.5 84.5t-33 63t-15.5 50.5t24 45.5t63 21.5t62.5 -21.5t23.5 -45.5t-15.5 -50.5 t-33.5 -63t-21 -84.5q60 4 118 35.5t90 31.5q27 0 49.5 -22t22.5 -58q0 -37 -22 -59t-50 -22q-29 0 -57.5 14t-66 30.5t-84.5 19.5q0 -32 27.5 -85t54.5 -83q-33 -67 -56 -202t-25 -284z"/>
<glyph glyph-name="daggerdbl" horiz-adv-x="904" unicode="‡" d="M435 2q-47 -3 -83.5 -20t-63.5 -32t-56 -15q-28 0 -50 22.5t-22 57.5q0 37 22 59t50 22q29 0 56 -14t63.5 -30.5t83.5 -19.5q0 32 -28 91.5t-54 88.5q26 28 54 87.5t28 91.5q-47 -3 -83.5 -19.5t-63.5 -30.5t-56 -14q-28 0 -50 22t-22 59q0 36 22 58t50 22q29 0 56 -15 t63.5 -32t83.5 -20q-3 48 -20.5 84.5t-33 63t-15.5 50.5t24 45.5t63 21.5t62.5 -21.5t23.5 -45.5t-15.5 -50.5t-33.5 -63t-21 -84.5q47 3 83.5 20t63.5 32t56 15q28 0 50 -22t22 -58q0 -37 -22 -59t-50 -22q-29 0 -56 14t-63.5 30.5t-83.5 19.5q0 -32 28 -91.5t54 -87.5 q-26 -29 -54 -88.5t-28 -91.5q47 3 83.5 19.5t63.5 30.5t56 14q28 0 50 -22t22 -59q0 -35 -22 -57.5t-50 -22.5q-29 0 -56 15t-63.5 32t-83.5 20q3 -48 21 -84.5t33.5 -63t15.5 -50.5t-23.5 -45.5t-62.5 -21.5t-63 21.5t-24 45.5t15.5 50.5t33 63t20.5 84.5z"/>
<glyph glyph-name="ellipsis" horiz-adv-x="440" unicode="…" d="M1000 64q0 34 27 57t72 23t72.5 -23t27.5 -57q0 -35 -27 -58t-73 -23t-72.5 22.5t-26.5 58.5zM560 64q0 34 27 57t72 23t72.5 -23t27.5 -57q0 -35 -27 -58t-73 -23t-72.5 22.5t-26.5 58.5zM120 64q0 34 27 57t72 23t72.5 -23t27.5 -57q0 -35 -27 -58t-73 -23t-72.5 22.5 t-26.5 58.5z"/>
<glyph glyph-name="perthousand" horiz-adv-x="1581" unicode="‰" d="M1301 12q46 0 63 36t17 126q0 92 -18 128.5t-62 36.5q-43 0 -62 -37.5t-19 -127.5q0 -86 18.5 -124t62.5 -38zM1101 174q0 87 57.5 139.5t142.5 52.5q84 0 141 -53t57 -139q0 -87 -56.5 -138t-141.5 -51q-86 0 -143 51t-57 138zM797 12q46 0 63 36t17 126q0 92 -18 128.5 t-62 36.5q-43 0 -62 -37.5t-19 -127.5q0 -86 18.5 -124t62.5 -38zM597 174q0 87 57.5 139.5t142.5 52.5q84 0 141 -53t57 -139q0 -87 -56.5 -138t-141.5 -51q-86 0 -143 51t-57 138zM299 -19l436 698h45l-436 -698h-45zM282 337q46 0 63 36t17 126q0 92 -18 128.5t-62 36.5 q-43 0 -62 -37.5t-19 -127.5q0 -86 18.5 -124t62.5 -38zM82 499q0 87 57.5 139.5t142.5 52.5q84 0 141 -53t57 -139q0 -87 -56.5 -138t-141.5 -51q-86 0 -143 51t-57 138z"/>
<glyph glyph-name="guilsinglleft" horiz-adv-x="499" unicode="‹" d="M397 115l-323 220l323 220l19 -15l-145 -205l145 -205z"/>
<glyph glyph-name="guilsinglright" horiz-adv-x="499" unicode="›" d="M425 335l-323 -220l-19 15l145 205l-145 205l19 15z"/>
<glyph glyph-name="fraction" horiz-adv-x="240" unicode="⁄" d="M-120 -19l436 698h45l-436 -698h-45z"/>
<glyph glyph-name="Euro" horiz-adv-x="907" unicode="€" d="M85 246v34h72q-3 24 -3 49q0 23 3 47h-72v34h78q31 121 139.5 192.5t234.5 71.5q71 0 133 -18.5t70 -18.5q25 0 26 35h30v-226h-30q-5 31 -20 64t-39 64t-62 51t-82 20q-90 0 -142 -56t-65 -179h300l-13 -34h-289q-1 -16 -1 -47v-49h275l-13 -34h-260q8 -125 49.5 -177.5 t137.5 -52.5q94 0 162.5 62.5t81.5 145.5h30v-236h-30q-3 35 -30 35q-10 0 -83 -18.5t-140 -18.5q-150 0 -248.5 67t-123.5 193h-76z"/>
<glyph glyph-name="trademark" horiz-adv-x="1231" unicode="™" d="M175 335v24h79v278h-39q-44 0 -71 -30t-30 -66h-24l1 119h426v-119h-25q-3 37 -29.5 66.5t-72.5 29.5h-38v-278h78v-24h-255zM564 335v24h78v278h-78v23h194l111 -213l116 213h181v-23h-79v-278h79v-24h-252v24h74v251l-150 -275h-18l-152 289v-265h79v-24h-183z"/>
<glyph glyph-name="partialdiff" horiz-adv-x="763" unicode="∂" d="M598 239q-18 68 -63 116t-115 48q-89 0 -137 -68t-48 -171q0 -77 35 -114.5t98 -37.5q81 0 140.5 63.5t89.5 163.5zM177 482l-26 10q33 88 107.5 137.5t160.5 49.5q100 0 169 -68.5t69 -202.5q0 -49 -9 -102t-32.5 -112.5t-58 -105.5t-92.5 -76.5t-130 -30.5 q-111 0 -186.5 50.5t-75.5 143.5q0 118 94 190.5t220 72.5q92 0 147 -43.5t77 -100.5q7 42 7 73q0 92 -58 151t-170 59q-64 0 -123 -21.5t-90 -73.5z"/>
<glyph glyph-name="product" horiz-adv-x="1280" unicode="∏" d="M90 -131v30h160v731h-160v30h1100v-30h-160v-731h160v-30h-485v30h125v731h-380v-731h125v-30h-485z"/>
<glyph glyph-name="summation" horiz-adv-x="1003" unicode="∑" d="M80 -131v30l375 334l-365 397v30h731v-230h-30q0 88 -70.5 144t-211.5 56h-184l283 -315l-361 -316h328q106 0 161.5 15t76 45.5t20.5 89.5h30v-280h-783z"/>
<glyph glyph-name="minus" horiz-adv-x="615" unicode="−" d="M101 241v38h414v-38h-414z"/>
<glyph glyph-name="radical" horiz-adv-x="688" unicode="√" d="M325 -20l-200 416l-58 -28l-16 36l195 98l151 -326l237 528h105v-38h-78l-304 -686h-32z"/>
<glyph glyph-name="infinity" horiz-adv-x="1040" unicode="∞" d="M569 270q60 -69 178 -69q73 0 117.5 41t44.5 103q0 49 -35.5 93t-101.5 44q-55 0 -102 -48t-101 -164zM471 392q-69 68 -177 68q-81 0 -121 -44.5t-42 -95.5v-6q0 -63 40.5 -99.5t92.5 -36.5q56 0 102.5 46t104.5 168zM553 240q-81 -132 -222 -132q-95 0 -163 58t-68 164 q0 111 61 166.5t142 55.5q57 0 107.5 -34.5t75.5 -98.5q83 133 225 133q97 0 163 -59t66 -158q0 -62 -18 -108.5t-48 -71t-62.5 -36t-68.5 -11.5q-132 0 -190 132z"/>
<glyph glyph-name="approxequal" horiz-adv-x="789" unicode="≈" d="M133 55l-23 11q72 165 186 165q43 0 121 -29q93 -34 119 -34q41 0 68 14t52 55l23 -11q-72 -165 -186 -165q-43 0 -121 29q-89 34 -119 34q-41 0 -68 -14t-52 -55zM133 285l-23 11q72 165 186 165q43 0 121 -29q93 -34 119 -34q41 0 68 14t52 55l23 -11 q-72 -165 -186 -165q-43 0 -121 29q-89 34 -119 34q-41 0 -68 -14t-52 -55z"/>
<glyph glyph-name="notequal" horiz-adv-x="615" unicode="≠" d="M150 70l64 90h-114v38h141l88 124h-229v38h256l64 90h45l-64 -90h114v-38h-141l-88 -124h229v-38h-256l-64 -90h-45z"/>
<glyph glyph-name="lessequal" horiz-adv-x="615" unicode="≤" d="M123 0v38h369v-38h-369zM123 238v44l369 138v-44l-321 -116l321 -116v-44z"/>
<glyph glyph-name="greaterequal" horiz-adv-x="615" unicode="≥" d="M123 0v38h369v-38h-369zM123 100v44l321 116l-321 116v44l369 -138v-44z"/>
<glyph glyph-name="lozenge" horiz-adv-x="830" unicode="◊" d="M705 330l-271 -330h-38l-271 330l271 330h38zM180 330l235 -286l235 286l-235 286z"/>
</font>
</defs>
</svg>
